<?xml version="1.0" encoding="utf-8"?>
<!-- Generator: Adobe Illustrator 25.1.0, SVG Export Plug-In . SVG Version: 6.00 Build 0)  -->
<svg version="1.1" id="Capa_1" xmlns="http://www.w3.org/2000/svg" xmlns:xlink="http://www.w3.org/1999/xlink" x="0px" y="0px"
	 viewBox="0 0 25 25" style="enable-background:new 0 0 25 25;" xml:space="preserve">
<style type="text/css">
	.st0{fill:#C4C4C4;}
	.st1{fill:#FFFFFF;}
</style>
<g>
	<path class="st0" d="M1037.8,273.8c0-0.1-0.1-0.1-0.1-0.2c-1.5-2.4-2.9-4.7-4.4-7.1c-0.7-1.1-1-2.3-0.8-3.5c0.3-2.3,2-4.2,4.3-4.6
		c2.7-0.5,5.2,1.1,6,3.6c0.5,1.5,0.3,3-0.5,4.3C1040.8,268.8,1039.3,271.2,1037.8,273.8C1037.8,273.7,1037.8,273.7,1037.8,273.8z
		 M1037.7,266.8c1.8,0,3.2-1.4,3.2-3.2c0-1.8-1.4-3.2-3.2-3.2c-1.8,0-3.2,1.4-3.2,3.2C1034.5,265.3,1036,266.8,1037.7,266.8z"/>
	<path class="st0" d="M1037.7,265.7c-1.2,0-2.1-0.9-2.1-2.1s1-2.1,2.1-2.1c1.2,0,2.1,1,2.1,2.1
		C1039.8,264.8,1038.9,265.7,1037.7,265.7z"/>
</g>
<g>
	<path class="st1" d="M18.9,7.3c0-0.7-0.5-1.2-1.2-1.2h-3h-0.7l-0.7,0c-0.5,0-1,0-1.5,0c-0.8,0-1.4,0.6-1.4,1.4c0,0.3,0,0.6,0,0.9
		l0,0.1c0,0.1,0,0.2,0.1,0.2C10.4,9,10.6,9,10.8,9c0.2-0.1,0.3-0.2,0.3-0.4c0-0.2,0-0.4,0-0.6V7.6c0-0.5,0.3-0.7,0.7-0.7
		c1.1,0,2.3,0,3.4,0h0l-0.9,0.3c-0.6,0.2-0.9,0.6-0.9,1.2v8.1l-0.4,0c-0.4,0-0.8,0-1.3,0c-0.4,0-0.6-0.3-0.6-0.7c0-0.2,0-0.4,0-0.6
		v-0.4c0-0.3-0.1-0.4-0.4-0.4c-0.1,0-0.2,0-0.3,0.1c-0.1,0.1-0.1,0.2-0.1,0.4c0,0.3,0,0.6,0,0.9c0,0.9,0.6,1.5,1.5,1.5h1.6v0.1
		c0,0.1,0,0.3,0,0.4c0,0.4,0.2,0.7,0.5,0.9c0.1,0.1,0.2,0.1,0.3,0.2c0,0,0.1,0,0.1,0.1l0.4,0l1.1-0.4c0.7-0.2,1.5-0.5,2.2-0.7
		c0.5-0.2,0.8-0.6,0.8-1.1C18.9,13.5,18.9,10.4,18.9,7.3z M18.1,16.6c0,0.2-0.1,0.4-0.3,0.5c-1,0.3-2,0.7-3,1c-0.1,0-0.3,0-0.4,0
		c-0.1-0.1-0.2-0.2-0.2-0.4l0-3.4V8.4c0-0.3,0.1-0.4,0.3-0.5c1-0.3,2-0.7,3-1c0.1,0,0.1,0,0.2,0c0.1,0,0.2,0,0.2,0.1
		c0.1,0.1,0.2,0.2,0.2,0.4C18.1,10.4,18.1,13.5,18.1,16.6z"/>
	<path class="st1" d="M12,12c0.1-0.1,0.1-0.2,0.1-0.3s0-0.2-0.1-0.3l-2-2c0,0-0.1-0.1-0.1-0.1C9.7,9.2,9.5,9.2,9.4,9.4
		c-0.1,0.1-0.2,0.3,0,0.5c0,0,0.1,0.1,0.1,0.1l1.4,1.4H9.9c-1.1,0-2.2,0-3.3,0c0,0,0,0,0,0c-0.2,0-0.4,0.1-0.5,0.3l0,0.2l0,0.1
		c0.1,0.2,0.2,0.3,0.5,0.3c1.1,0,2.2,0,3.3,0h0.8l-1.4,1.4c0,0-0.1,0.1-0.1,0.1c-0.1,0.1-0.1,0.3,0,0.4c0.1,0.1,0.2,0.2,0.3,0.2
		c0,0,0,0,0.1,0c0.1,0,0.2-0.1,0.3-0.1c0.6-0.6,1.2-1.2,1.8-1.8L12,12z"/>
</g>
</svg>
