<svg xmlns="http://www.w3.org/2000/svg" width="50" height="50" viewBox="0 0 50 50"><defs><style>.a{fill:#fbfdfe;}.b{fill:#0f4d8c;}</style></defs><circle class="a" cx="25" cy="25" r="25"/><g transform="translate(7.713 9.382)"><path class="b" d="M-84.818,38.962c1.3,0,2.6-.008,3.9.006a.616.616,0,0,0,.63-.36,2.343,2.343,0,0,1,2.22-1.309c.418.013.547-.27.707-.543,1.217-2.072,2.437-4.141,3.637-6.223.214-.371.356-.558.731-.151a1.93,1.93,0,0,0,.916.53c.383.1.344.259.172.55-1.29,2.173-2.558,4.359-3.847,6.532a.693.693,0,0,0-.014.771,2.658,2.658,0,0,1-.022,2.562.744.744,0,0,0,.058.86c1.246,2.076,2.47,4.164,3.714,6.24.174.29.213.439-.171.556a2.166,2.166,0,0,0-.984.622c-.3.337-.408.21-.59-.1-1.216-2.093-2.454-4.172-3.668-6.267a.816.816,0,0,0-.79-.476,2.3,2.3,0,0,1-2.059-1.3.724.724,0,0,0-.751-.433c-2.566.013-5.131,0-7.7.014-.438,0-.622-.053-.461-.556a2.3,2.3,0,0,0,.048-1.006c-.068-.466.131-.527.526-.521C-87.348,38.974-86.084,38.962-84.818,38.962Zm7.739,1.051a1.117,1.117,0,0,0-1.014-1.044,1.086,1.086,0,0,0-.987,1.067,1.088,1.088,0,0,0,1.012,1.04A1.1,1.1,0,0,0-77.079,40.013Z" transform="translate(95.439 -24.435)"/><path class="b" d="M-78.8,28.619c-1.23,0-2.459-.006-3.689,0-.21,0-.46-.1-.6.2a.779.779,0,0,0,0,.832c1.33,2.191,2.626,4.4,3.952,6.6.223.371.261.562-.232.672a1.976,1.976,0,0,0-.932.5c-.32.309-.456.2-.65-.133-1.219-2.092-2.466-4.167-3.679-6.261a.826.826,0,0,0-.864-.493,2.59,2.59,0,0,1-2.686-2.248,2.9,2.9,0,0,1,1.73-3.113,2.557,2.557,0,0,1,2.98.913.876.876,0,0,0,.839.4c2.566-.013,5.132,0,7.7-.013.412,0,.6.061.421.518a2.491,2.491,0,0,0-.073,1.216c.046.346-.05.411-.371.408C-76.236,28.61-77.519,28.619-78.8,28.619Zm-7.7-.806a.988.988,0,0,0,1,1.018A1.078,1.078,0,0,0-84.55,27.8a1.029,1.029,0,0,0-.964-1.016A1,1,0,0,0-86.507,27.814Z" transform="translate(95.554 -25.006)"/><path class="b" d="M-74.415,52.686h-4.456c-1.263,0-2.528.01-3.792-.007a.76.76,0,0,0-.736.377,2.516,2.516,0,0,1-3.169,1.008,2.824,2.824,0,0,1-1.618-3.209A2.61,2.61,0,0,1-85.63,48.7a.685.685,0,0,0,.661-.408c1.277-2.178,2.576-4.342,3.853-6.52.174-.3.278-.388.563-.107a2.626,2.626,0,0,0,1.032.647c.322.1.352.224.173.523-1.287,2.152-2.553,4.317-3.826,6.477a.735.735,0,0,0-.121.768.819.819,0,0,0,.922.561c2.457-.022,4.914-.009,7.372-.013.29,0,.5-.027.422.414A3.607,3.607,0,0,0-74.415,52.686Zm-11.131-2.159a1,1,0,0,0-.958.952.987.987,0,0,0,.957.944,1.008,1.008,0,0,0,1-.969A1.049,1.049,0,0,0-85.546,50.527Z" transform="translate(95.551 -23.175)"/><path class="b" d="M-94.82,40.047a2.761,2.761,0,0,1,2.214-2.707,1.107,1.107,0,0,0,.841-.613c1.256-2.172,2.537-4.329,3.8-6.5.191-.329.329-.48.627-.1a2.115,2.115,0,0,0,.952.671c.4.139.316.3.153.574-1.238,2.08-2.456,4.172-3.7,6.248a.761.761,0,0,0,.013.94,2.7,2.7,0,0,1-.02,3.023.681.681,0,0,0-.026.847c1.246,2.1,2.463,4.209,3.709,6.3.191.322.274.5-.174.642a2.1,2.1,0,0,0-.949.674c-.27.323-.364.241-.541-.063-.956-1.647-1.927-3.284-2.892-4.926-.2-.338-.4-.672-.593-1.013a2.316,2.316,0,0,0-1.606-1.424A2.62,2.62,0,0,1-94.82,40.047Zm3.689,0a1.089,1.089,0,0,0-1.008-1.041,1.128,1.128,0,0,0-.978,1.028,1.1,1.1,0,0,0,1,1.06A1.049,1.049,0,0,0-91.131,40.051Z" transform="translate(94.82 -24.462)"/><path class="b" d="M-75,51.527a2.615,2.615,0,0,1,2.8-2.744.683.683,0,0,0,.709-.393c1.221-2.091,2.464-4.168,3.683-6.259.213-.364.371-.568.768-.191a2.272,2.272,0,0,0,.99.508c.361.1.334.24.171.517-1.3,2.19-2.573,4.391-3.874,6.578a1.061,1.061,0,0,0-.116,1.028,2.753,2.753,0,0,1-2.6,3.751A2.716,2.716,0,0,1-75,51.527Zm1.682-.061a.986.986,0,0,0,.97,1.043,1.044,1.044,0,0,0,.982-1,1.071,1.071,0,0,0-.994-1.053A1,1,0,0,0-73.316,51.466Z" transform="translate(97.022 -23.147)"/><path class="b" d="M-71.566,38.249c1.282,0,2.566-.007,3.848.006a.582.582,0,0,0,.588-.336,2.561,2.561,0,0,1,2.961-1.239,2.861,2.861,0,0,1,1.961,2.708,2.891,2.891,0,0,1-2,2.576,2.562,2.562,0,0,1-2.938-1.288.646.646,0,0,0-.681-.363c-2.512.007-5.024-.009-7.536.016-.473,0-.618-.148-.494-.572a2.151,2.151,0,0,0-.016-1.053c-.073-.36.046-.464.406-.46C-74.167,38.259-72.867,38.249-71.566,38.249Zm6.689.02a1.127,1.127,0,0,0-1.032,1.03,1.131,1.131,0,0,0,1,1.057,1.1,1.1,0,0,0,.989-1A1.082,1.082,0,0,0-64.877,38.269Z" transform="translate(96.922 -23.721)"/><path class="b" d="M-69.756,27.835a1.669,1.669,0,0,1-.094.84c-.3.514-.084.913.183,1.358,1.274,2.118,2.516,4.254,3.79,6.372.208.343.118.44-.217.521a1.992,1.992,0,0,0-.94.484c-.362.359-.527.263-.761-.142-1.139-1.97-2.317-3.918-3.461-5.886a1.206,1.206,0,0,0-1.216-.794A2.628,2.628,0,0,1-75,27.631a2.761,2.761,0,0,1,2.684-2.6A2.691,2.691,0,0,1-69.756,27.835Zm-3.56-.009a.989.989,0,0,0,.959,1,1.065,1.065,0,0,0,.994-1.047,1.03,1.03,0,0,0-.978-1A1,1,0,0,0-73.316,27.826Z" transform="translate(97.022 -25.003)"/></g></svg>