<?xml version="1.0" encoding="utf-8"?>
<!-- Generator: Adobe Illustrator 25.1.0, SVG Export Plug-In . SVG Version: 6.00 Build 0)  -->
<svg version="1.1" id="Capa_1" xmlns="http://www.w3.org/2000/svg" xmlns:xlink="http://www.w3.org/1999/xlink" x="0px" y="0px"
	 viewBox="0 0 25 25" style="enable-background:new 0 0 25 25;" xml:space="preserve">
<style type="text/css">
	.st0{fill:#C4C4C4;}
	.st1{fill:#FFFFFF;}
</style>
<g>
	<path class="st0" d="M1037.8,273.8c0-0.1-0.1-0.1-0.1-0.2c-1.5-2.4-2.9-4.7-4.4-7.1c-0.7-1.1-1-2.3-0.8-3.5c0.3-2.3,2-4.2,4.3-4.6
		c2.7-0.5,5.2,1.1,6,3.6c0.5,1.5,0.3,3-0.5,4.3C1040.8,268.8,1039.3,271.2,1037.8,273.8C1037.8,273.7,1037.8,273.7,1037.8,273.8z
		 M1037.7,266.8c1.8,0,3.2-1.4,3.2-3.2c0-1.8-1.4-3.2-3.2-3.2c-1.8,0-3.2,1.4-3.2,3.2C1034.5,265.3,1036,266.8,1037.7,266.8z"/>
	<path class="st0" d="M1037.7,265.7c-1.2,0-2.1-0.9-2.1-2.1s1-2.1,2.1-2.1c1.2,0,2.1,1,2.1,2.1
		C1039.8,264.8,1038.9,265.7,1037.7,265.7z"/>
</g>
<g>
	<path class="st1" d="M18,14.6c-0.3,0-0.5,0-0.8,0H16c-0.7,0-1.4,0-2.1,0c-0.5,0-0.9,0.4-0.9,0.9c0,0.8,0,1.7,0,2.7
		c0,0.5,0.4,0.9,0.9,0.9c0.7,0,1.4,0,2.1,0c0.7,0,1.5,0,2.2,0c0.4,0,0.7-0.2,0.8-0.6l0-0.1l0-3l0,0C18.8,14.8,18.5,14.6,18,14.6z
		 M18.3,15.6c0,0.8,0,1.7,0,2.5c0,0.2-0.1,0.3-0.3,0.3c-1.4,0-2.7,0-4.1,0c-0.2,0-0.3-0.1-0.3-0.3c0-0.8,0-1.7,0-2.5
		c0-0.2,0.1-0.3,0.3-0.3l1.4,0l0.7,0l0.7,0l1.4,0C18.2,15.3,18.3,15.4,18.3,15.6z"/>
	<path class="st1" d="M13.8,13.7c0.6,0,1.3,0,2,0c0.7,0,1.4,0,2.2,0c0.4,0,0.6-0.2,0.8-0.5c0-0.1,0-0.1,0.1-0.2c0,0,0,0,0-0.1l0-6.1
		l0,0c-0.1-0.2-0.1-0.4-0.4-0.6c-0.1,0-0.2-0.1-0.2-0.1c0,0-0.1,0-0.1,0l-4.5,0l0,0C13.1,6.3,13,6.5,13,7.2V10c0,0.9,0,1.8,0,2.8
		C13,13.3,13.3,13.7,13.8,13.7z M13.6,8.9l0-1.9c0-0.2,0.1-0.3,0.3-0.3l4.1,0c0.2,0,0.3,0.1,0.3,0.3v5.7c0,0.2,0,0.3-0.3,0.3l-4.1,0
		c-0.2,0-0.3,0-0.3-0.3l0-1.9l0-1L13.6,8.9z"/>
	<path class="st1" d="M6.9,10.5c0.7,0,1.4,0,2.1,0c0.7,0,1.4,0,2.1,0c0.5,0,0.9-0.4,0.9-0.9c0-0.9,0-1.8,0-2.6
		c0-0.3-0.1-0.6-0.4-0.7c-0.1,0-0.2-0.1-0.2-0.1c0,0-0.1,0-0.1,0l-4.6,0l0,0l0,0C6.3,6.3,6,6.6,6,7c0,0.9,0,1.7,0,2.6
		C6,10.1,6.4,10.5,6.9,10.5z M8.4,9.8L7,9.8c-0.2,0-0.3-0.1-0.3-0.3V7.1c0-0.2,0.1-0.3,0.3-0.3c1.4,0,2.7,0,4.1,0
		c0.2,0,0.3,0.1,0.3,0.3c0,0.8,0,1.7,0,2.5c0,0.2-0.1,0.3-0.3,0.3l-1.4,0L9,9.8L8.4,9.8z"/>
	<path class="st1" d="M11.1,11.4c-1.4,0-2.8,0-4.1,0c-0.6,0-0.9,0.4-0.9,0.9v5.7C6,18.7,6.4,19,7,19c0.7,0,1.4,0,2.1,0s1.4,0,2.1,0
		c0.6,0,0.9-0.4,0.9-0.9c0-1.9,0-3.8,0-5.7C12,11.8,11.7,11.4,11.1,11.4z M11.4,15.2l0,2.8c0,0.2,0,0.3-0.3,0.3c-1.4,0-2.7,0-4.1,0
		c-0.2,0-0.3-0.1-0.3-0.3v-5.7c0-0.2,0.1-0.3,0.3-0.3h4.1c0.2,0,0.3,0,0.3,0.3L11.4,15.2z"/>
</g>
</svg>
