<?xml version="1.0" encoding="UTF-8" standalone="no"?>
<!-- Generator: Adobe Illustrator 25.1.0, SVG Export Plug-In . SVG Version: 6.00 Build 0)  -->

<svg
   version="1.1"
   id="Capa_1"
   x="0px"
   y="0px"
   viewBox="0 0 25 25"
   style="enable-background:new 0 0 25 25;"
   xml:space="preserve"
   sodipodi:docname="dashboard2.svg"
   inkscape:version="1.2.2 (b0a8486541, 2022-12-01, custom)"
   xmlns:inkscape="http://www.inkscape.org/namespaces/inkscape"
   xmlns:sodipodi="http://sodipodi.sourceforge.net/DTD/sodipodi-0.dtd"
   xmlns="http://www.w3.org/2000/svg"
   xmlns:svg="http://www.w3.org/2000/svg"><sodipodi:namedview
   id="namedview29"
   pagecolor="#ffffff"
   bordercolor="#000000"
   borderopacity="0.25"
   inkscape:showpageshadow="2"
   inkscape:pageopacity="0.0"
   inkscape:pagecheckerboard="0"
   inkscape:deskcolor="#d1d1d1"
   showgrid="true"
   inkscape:zoom="256"
   inkscape:cx="18.640625"
   inkscape:cy="19.855469"
   inkscape:window-width="1920"
   inkscape:window-height="1043"
   inkscape:window-x="0"
   inkscape:window-y="0"
   inkscape:window-maximized="1"
   inkscape:current-layer="Capa_1"><inkscape:grid
     type="xygrid"
     id="grid1071" /></sodipodi:namedview><defs
   id="defs46" />
<style
   type="text/css"
   id="style25">
	.st0{fill:#C4C4C4;}
	.st1{fill:#FFFFFF;}
</style>
<g
   id="g31">
	<path
   class="st0"
   d="M1037.8,273.8c0-0.1-0.1-0.1-0.1-0.2c-1.5-2.4-2.9-4.7-4.4-7.1c-0.7-1.1-1-2.3-0.8-3.5c0.3-2.3,2-4.2,4.3-4.6   c2.7-0.5,5.2,1.1,6,3.6c0.5,1.5,0.3,3-0.5,4.3C1040.8,268.8,1039.3,271.2,1037.8,273.8C1037.8,273.7,1037.8,273.7,1037.8,273.8z    M1037.7,266.8c1.8,0,3.2-1.4,3.2-3.2c0-1.8-1.4-3.2-3.2-3.2c-1.8,0-3.2,1.4-3.2,3.2C1034.5,265.3,1036,266.8,1037.7,266.8z"
   id="path27" />
	<path
   class="st0"
   d="M1037.7,265.7c-1.2,0-2.1-0.9-2.1-2.1s1-2.1,2.1-2.1c1.2,0,2.1,1,2.1,2.1   C1039.8,264.8,1038.9,265.7,1037.7,265.7z"
   id="path29" />
</g>
<g
   id="g41"
   transform="matrix(0.99996744,0,0,0.99975671,9.1893191e-4,-0.09862593)">
	<path
   class="st1"
   d="m 18,14.6 c -0.3,0 -0.5,0 -0.8,0 H 16 c -0.7,0 -1.4,0 -2.1,0 -0.5,0 -0.9,0.4 -0.9,0.9 0,0.8 0,1.7 0,2.7 0,0.5 0.4,0.9 0.9,0.9 0.7,0 1.4,0 2.1,0 0.7,0 1.5,0 2.2,0 0.4,0 0.7,-0.2 0.8,-0.6 v -0.1 -3 0 c -0.2,-0.6 -0.5,-0.8 -1,-0.8 z m 0.3,1 c 0,0.8 0,1.7 0,2.5 0,0.2 -0.1,0.3 -0.3,0.3 -1.4,0 -2.7,0 -4.1,0 -0.2,0 -0.3,-0.1 -0.3,-0.3 0,-0.8 0,-1.7 0,-2.5 0,-0.2 0.1,-0.3 0.3,-0.3 h 1.4 0.7 0.7 1.4 c 0.1,0 0.2,0.1 0.2,0.3 z"
   id="path33" />
	<path
   class="st1"
   d="m 13.8,13.7 c 0.6,0 1.3,0 2,0 0.7,0 1.4,0 2.2,0 0.4,0 0.6,-0.2 0.8,-0.5 0,-0.1 0,-0.1 0.1,-0.2 0,0 0,0 0,-0.1 v -6.1 0 C 18.8,6.6 18.8,6.4 18.5,6.2 c -0.1,0 -0.2,-0.1 -0.2,-0.1 0,0 -0.1,0 -0.1,0 h -4.5 v 0 C 13.1,6.3 13,6.5 13,7.2 V 10 c 0,0.9 0,1.8 0,2.8 0,0.5 0.3,0.9 0.8,0.9 z M 13.6,8.9 V 7 c 0,-0.2 0.1,-0.3 0.3,-0.3 H 18 c 0.2,0 0.3,0.1 0.3,0.3 v 5.7 c 0,0.2 0,0.3 -0.3,0.3 h -4.1 c -0.2,0 -0.3,0 -0.3,-0.3 v -1.9 -1 z"
   id="path35" />
	<path
   class="st1"
   d="m 6.9,10.5 c 0.7,0 1.4,0 2.1,0 0.7,0 1.4,0 2.1,0 0.5,0 0.9,-0.4 0.9,-0.9 0,-0.9 0,-1.8 0,-2.6 0,-0.3 -0.1,-0.6 -0.4,-0.7 -0.1,0 -0.2,-0.1 -0.2,-0.1 0,0 -0.1,0 -0.1,0 H 6.7 v 0 0 C 6.3,6.3 6,6.6 6,7 c 0,0.9 0,1.7 0,2.6 0,0.5 0.4,0.9 0.9,0.9 z M 8.4,9.8 H 7 C 6.8,9.8 6.7,9.7 6.7,9.5 V 7.1 C 6.7,6.9 6.8,6.8 7,6.8 c 1.4,0 2.7,0 4.1,0 0.2,0 0.3,0.1 0.3,0.3 0,0.8 0,1.7 0,2.5 0,0.2 -0.1,0.3 -0.3,0.3 H 9.7 L 9,9.8 Z"
   id="path37" />
	<path
   class="st1"
   d="m 11.1,11.4 c -1.4,0 -2.8,0 -4.1,0 -0.6,0 -0.9,0.4 -0.9,0.9 V 18 c -0.1,0.7 0.3,1 0.9,1 0.7,0 1.4,0 2.1,0 0.7,0 1.4,0 2.1,0 0.6,0 0.9,-0.4 0.9,-0.9 0,-1.9 0,-3.8 0,-5.7 -0.1,-0.6 -0.4,-1 -1,-1 z m 0.3,3.8 V 18 c 0,0.2 0,0.3 -0.3,0.3 -1.4,0 -2.7,0 -4.1,0 C 6.8,18.3 6.7,18.2 6.7,18 V 12.3 C 6.7,12.1 6.8,12 7,12 h 4.1 c 0.2,0 0.3,0 0.3,0.3 z"
   id="path39" />
</g>
</svg>
