<?xml version="1.0" encoding="utf-8"?>
<!-- Generator: Adobe Illustrator 25.1.0, SVG Export Plug-In . SVG Version: 6.00 Build 0)  -->
<svg version="1.1" id="Capa_1" xmlns="http://www.w3.org/2000/svg" xmlns:xlink="http://www.w3.org/1999/xlink" x="0px" y="0px"
	 viewBox="0 0 25 25" style="enable-background:new 0 0 25 25;" xml:space="preserve">
<style type="text/css">
	.st0{fill:#C4C4C4;}
	.st1{fill:#FFFFFF;}
</style>
<g>
	<path class="st0" d="M1037.8,273.8c0-0.1-0.1-0.1-0.1-0.2c-1.5-2.4-2.9-4.7-4.4-7.1c-0.7-1.1-1-2.3-0.8-3.5c0.3-2.3,2-4.2,4.3-4.6
		c2.7-0.5,5.2,1.1,6,3.6c0.5,1.5,0.3,3-0.5,4.3C1040.8,268.8,1039.3,271.2,1037.8,273.8C1037.8,273.7,1037.8,273.7,1037.8,273.8z
		 M1037.7,266.8c1.8,0,3.2-1.4,3.2-3.2c0-1.8-1.4-3.2-3.2-3.2c-1.8,0-3.2,1.4-3.2,3.2C1034.5,265.3,1036,266.8,1037.7,266.8z"/>
	<path class="st0" d="M1037.7,265.7c-1.2,0-2.1-0.9-2.1-2.1s1-2.1,2.1-2.1c1.2,0,2.1,1,2.1,2.1
		C1039.8,264.8,1038.9,265.7,1037.7,265.7z"/>
</g>
<g>
	<path class="st1" d="M11.5,7.8c0.9,0,1.7,0,2.6,0c0.3,0,0.5,0.2,0.4,0.5c-0.1,0.1-0.2,0.2-0.3,0.2c-0.2,0-0.4,0-0.6,0
		c-1.5,0-3.1,0-4.6,0c-0.1,0-0.1,0-0.2,0c-0.2,0-0.3-0.2-0.3-0.4c0-0.2,0.2-0.3,0.4-0.3c0.8,0,1.5,0,2.3,0
		C11.3,7.8,11.4,7.8,11.5,7.8z"/>
	<path class="st1" d="M10.9,10.3c-0.7,0-1.4,0-2,0c-0.3,0-0.5-0.3-0.3-0.5c0.1-0.1,0.2-0.2,0.3-0.2c0.6,0,1.2,0,1.9,0
		c0.7,0,1.5,0,2.2,0c0.3,0,0.5,0.3,0.3,0.5c-0.1,0.1-0.2,0.2-0.4,0.2C12.3,10.3,11.6,10.3,10.9,10.3z"/>
	<path class="st1" d="M10.4,12.2c-0.5,0-1,0-1.5,0c-0.2,0-0.4-0.1-0.4-0.3c0-0.2,0.2-0.4,0.4-0.4c1,0,1.9,0,2.9,0
		c0.3,0,0.5,0.2,0.4,0.5c-0.1,0.1-0.2,0.2-0.4,0.2C11.4,12.2,10.9,12.2,10.4,12.2z"/>
	<path class="st1" d="M15.3,8.5c0,0.3,0,7.6,0,8c0,0.2-0.2,0.3-0.3,0.3c0,0-0.1,0-0.1,0c-2.2,0-4.5,0-6.7,0c-0.3,0-0.4-0.1-0.4-0.4
		c0-3.3,0-6.5,0-9.8c0-0.3,0.1-0.4,0.4-0.4c2.2,0,4.5,0,6.7,0c0.3,0,0.4,0.1,0.4,0.4c0,1,0,2,0,2.9L16,9c0-0.8,0-1.6,0-2.4
		c0-0.6-0.3-1-0.9-1.2c0,0,0,0,0,0c-2.4,0-4.8,0-7.2,0c-0.1,0-0.3,0.1-0.4,0.1C7.3,5.8,7.1,6,7,6.3c0,0,0,0.1,0,0.1
		c0,3.4,0,6.8,0,10.2c0,0.1,0,0.2,0.1,0.3c0.2,0.4,0.5,0.6,1,0.6c1.6,0,3.3,0,4.9,0c0.6,0,1.3,0,1.9,0c0.7,0,1.1-0.5,1.1-1.1
		c0-0.3,0-7.6,0-7.9H15.3z"/>
	<path class="st1" d="M18,10.5c0-0.6,0-1.2,0-1.9c0-0.6-0.3-1-0.9-1.2c0,0,0,0,0,0c0,0,0,0-0.1,0v0.7v0c0.2,0,0.3,0.2,0.3,0.4
		c0,0.6,0,1.3,0,1.9h0c0,0.3,0,7.6,0,8c0,0.2-0.2,0.3-0.3,0.3c0,0-0.1,0-0.1,0c-2.2,0-4.5,0-6.7,0c-0.3,0-0.4-0.1-0.4-0.3h0H9
		c0,0,0,0.1,0,0.1c0,0.1,0,0.2,0.1,0.3c0.2,0.4,0.5,0.6,1,0.6c1.6,0,3.3,0,4.9,0c0.6,0,1.3,0,1.9,0c0.7,0,1.1-0.5,1.1-1.1
		C18,18.1,18,10.8,18,10.5L18,10.5z"/>
</g>
</svg>
