
<svg version="1.1" id="Layer_1" xmlns="http://www.w3.org/2000/svg" xmlns:xlink="http://www.w3.org/1999/xlink" x="0px" y="0px"
	 width="20px" height="20px" viewBox="0 0 20 20" style="enable-background:new 0 0 20 20;" xml:space="preserve">

	<path d="M17.84,8.99c-0.42,0-0.79-0.29-0.89-0.69c-0.59-2.39-2.41-4.34-4.75-5.1
	c-0.37-0.12-0.62-0.47-0.62-0.87V1.28c0-0.51,0.42-0.94,0.92-0.94c0.08,0,0.16,0.01,0.24,0.03C16.3,1.38,19,4.26,19.78,7.88
	c0.06,0.26-0.01,0.54-0.18,0.75c-0.18,0.22-0.45,0.35-0.73,0.35H17.84z"/>
<path d="M1.14,8.99c-0.29,0-0.55-0.13-0.73-0.35C0.23,8.42,0.16,8.14,0.22,7.88C1,4.26,3.7,1.39,7.26,0.37
	C7.34,0.35,7.42,0.34,7.5,0.34c0.5,0,0.92,0.43,0.92,0.94v1.04c0,0.4-0.25,0.75-0.62,0.87C5.46,3.95,3.64,5.9,3.05,8.29
	C2.95,8.7,2.58,8.99,2.16,8.99H1.14z"/>
<path d="M12.49,19.66c-0.49,0-0.91-0.43-0.91-0.94v-1.05c0-0.4,0.25-0.75,0.61-0.87
	c2.04-0.66,3.71-2.25,4.48-4.24C16.8,12.23,17.14,12,17.52,12h1.06c0.3,0,0.57,0.14,0.75,0.38c0.18,0.25,0.23,0.57,0.12,0.87
	c-1.06,3.11-3.57,5.49-6.73,6.37C12.65,19.65,12.57,19.66,12.49,19.66z"/>
<path d="M7.51,19.66c-0.08,0-0.16-0.01-0.23-0.03c-3.16-0.88-5.67-3.27-6.73-6.37
	c-0.1-0.3-0.06-0.62,0.12-0.87C0.85,12.14,1.12,12,1.42,12h1.06c0.38,0,0.72,0.22,0.85,0.56c0.77,1.99,2.45,3.58,4.48,4.24
	c0.37,0.12,0.61,0.47,0.61,0.87v1.05C8.42,19.23,8,19.66,7.51,19.66z"/>

</svg>
