
<svg version="1.1"  xmlns="http://www.w3.org/2000/svg" xmlns:xlink="http://www.w3.org/1999/xlink" x="0px" y="0px"
	viewBox="0 0 20 20" style="enable-background:new 0 0 20 20;" xml:space="preserve">

	<path d="M10.75,3.66V1.78c0-0.41-0.34-0.75-0.75-0.75S9.25,1.37,9.25,1.78v1.88C8.07,3.99,7.2,5.08,7.2,6.37
		s0.87,2.37,2.05,2.7v9.15c0,0.41,0.34,0.75,0.75,0.75s0.75-0.34,0.75-0.75V9.07c1.18-0.33,2.05-1.42,2.05-2.7
		S11.93,3.99,10.75,3.66z M10,7.67c-0.72,0-1.3-0.59-1.3-1.3s0.58-1.3,1.3-1.3s1.3,0.59,1.3,1.3S10.72,7.67,10,7.67z"/>
	<path d="M4.59,11.15V1.78c0-0.41-0.34-0.75-0.75-0.75S3.09,1.37,3.09,1.78v9.36
		c-1.18,0.33-2.05,1.41-2.05,2.69s0.87,2.36,2.05,2.69v1.69c0,0.41,0.34,0.75,0.75,0.75s0.75-0.34,0.75-0.75v-1.69
		c1.18-0.33,2.05-1.41,2.05-2.69S5.77,11.48,4.59,11.15z M3.84,15.14C3.84,15.14,3.84,15.14,3.84,15.14
		C3.84,15.14,3.84,15.14,3.84,15.14c-0.72,0-1.31-0.59-1.31-1.3c0-0.72,0.59-1.3,1.3-1.3s1.3,0.59,1.3,1.3
		C5.14,14.55,4.56,15.14,3.84,15.14z"/>
	<path d="M18.97,13.84c0-1.28-0.87-2.36-2.05-2.69V1.78c0-0.41-0.34-0.75-0.75-0.75s-0.75,0.34-0.75,0.75
		v9.36c-1.18,0.33-2.05,1.41-2.05,2.69s0.87,2.36,2.05,2.69v1.69c0,0.41,0.34,0.75,0.75,0.75s0.75-0.34,0.75-0.75v-1.69
		C18.09,16.2,18.97,15.12,18.97,13.84z M16.17,15.14C16.16,15.14,16.16,15.14,16.17,15.14C16.16,15.14,16.16,15.14,16.17,15.14
		c-0.72,0-1.31-0.59-1.31-1.3c0-0.72,0.59-1.3,1.3-1.3s1.3,0.59,1.3,1.3C17.47,14.55,16.88,15.14,16.17,15.14z"/>

</svg>
