
<svg version="1.1" id="Layer_1" xmlns="http://www.w3.org/2000/svg" xmlns:xlink="http://www.w3.org/1999/xlink" x="0px" y="0px"
	 width="20px" height="20px" viewBox="0 0 20 20" style="enable-background:new 0 0 20 20;" xml:space="preserve">

	<path d="M10,20c-1,0-1.99-0.35-2.82-1.04c-0.43-0.37-0.97-0.59-1.53-0.64c-2.14-0.17-3.81-1.84-3.98-3.98
			c-0.04-0.57-0.27-1.1-0.64-1.53c-1.39-1.63-1.39-4,0-5.63c0.37-0.43,0.6-0.97,0.64-1.53c0.17-2.14,1.84-3.8,3.98-3.98l0,0
			c0.57-0.04,1.1-0.27,1.53-0.64c1.63-1.39,4-1.39,5.63,0c0.43,0.37,0.97,0.59,1.53,0.64c2.14,0.17,3.81,1.84,3.98,3.98
			c0.04,0.57,0.27,1.1,0.64,1.53c1.39,1.63,1.39,4,0,5.63c-0.37,0.43-0.59,0.97-0.64,1.53c-0.17,2.14-1.84,3.81-3.98,3.98
			c-0.57,0.04-1.1,0.27-1.53,0.64C11.99,19.65,11,20,10,20z M6,3.65c-1.26,0.1-2.24,1.08-2.34,2.34C3.58,6.87,3.25,7.68,2.68,8.34
			c-0.82,0.96-0.82,2.35,0,3.32c0.57,0.66,0.9,1.47,0.97,2.34c0.1,1.26,1.08,2.24,2.34,2.34c0.87,0.07,1.68,0.41,2.34,0.98
			c0.96,0.82,2.35,0.82,3.32,0c0.66-0.57,1.47-0.9,2.34-0.98c1.26-0.1,2.24-1.08,2.34-2.34c0.07-0.87,0.41-1.68,0.98-2.34
			c0.82-0.96,0.82-2.35,0-3.32c-0.57-0.66-0.9-1.47-0.98-2.34c-0.1-1.26-1.08-2.24-2.34-2.34c-0.87-0.07-1.68-0.4-2.34-0.97
			c-0.96-0.82-2.36-0.82-3.32,0C7.68,3.25,6.87,3.58,6,3.65L6,3.65z M8.97,12.88c-0.21,0-0.42-0.08-0.59-0.24l-2.05-2.06
			c-0.32-0.32-0.32-0.84,0-1.16c0.32-0.32,0.84-0.32,1.16,0l1.48,1.47l3.52-3.52c0.32-0.32,0.84-0.32,1.16,0
			c0.32,0.32,0.32,0.84,0,1.16l-4.11,4.11C9.39,12.8,9.18,12.88,8.97,12.88z"/>

</svg>
