
<svg version="1.1" id="Layer_1" xmlns="http://www.w3.org/2000/svg" xmlns:xlink="http://www.w3.org/1999/xlink" x="0px" y="0px"
	 width="20px" height="20px" viewBox="0 0 20 20" style="enable-background:new 0 0 20 20;" xml:space="preserve">
<path class="st0" d="M10,0.18c5.42,0,9.82,4.39,9.82,9.82s-4.39,9.82-9.82,9.82S0.18,15.42,0.18,10S4.58,0.18,10,0.18z M10,2.15
	c-4.34,0-7.85,3.52-7.85,7.85s3.52,7.85,7.85,7.85s7.85-3.52,7.85-7.85S14.34,2.15,10,2.15z M10,10.98c-0.54,0-0.98-0.44-0.98-0.98
	V6.07c0-0.54,0.44-0.98,0.98-0.98s0.98,0.44,0.98,0.98V10C10.98,10.54,10.54,10.98,10,10.98z M10,14.91c-0.54,0-0.98-0.44-0.98-0.98
	c0-0.54,0.44-0.98,0.98-0.98s0.98,0.44,0.98,0.98C10.98,14.47,10.54,14.91,10,14.91z"/>
</svg>