
<svg version="1.1" id="Layer_1" xmlns="http://www.w3.org/2000/svg" xmlns:xlink="http://www.w3.org/1999/xlink" x="0px" y="0px"
	 width="20px" height="20px" viewBox="0 0 20 20" style="enable-background:new 0 0 20 20;" xml:space="preserve">
<path  d="M19.56,18.17l-5.31-5.31c1.04-1.33,1.66-3.01,1.66-4.83c0-4.34-3.53-7.88-7.88-7.88
	S0.15,3.69,0.15,8.03s3.53,7.88,7.88,7.88c1.82,0,3.49-0.62,4.83-1.66l5.31,5.31c0.19,0.19,0.44,0.29,0.7,0.29s0.5-0.1,0.7-0.29
	C19.94,19.17,19.94,18.55,19.56,18.17z M8.03,13.94c-3.26,0-5.91-2.65-5.91-5.91s2.65-5.91,5.91-5.91c3.26,0,5.91,2.65,5.91,5.91
	S11.29,13.94,8.03,13.94z"/>
</svg>
