
<svg version="1.1" id="Layer_1" xmlns="http://www.w3.org/2000/svg" xmlns:xlink="http://www.w3.org/1999/xlink" x="0px" y="0px"
	 width="20px" height="20px" viewBox="0 0 20 20" style="enable-background:new 0 0 20 20;" xml:space="preserve">
<path d="M7.11,16.68c-0.28,0-0.56-0.12-0.76-0.32l-5.29-5.29c-0.2-0.2-0.32-0.48-0.32-0.76
	s0.11-0.56,0.32-0.76c0.2-0.2,0.48-0.32,0.76-0.32s0.56,0.11,0.76,0.32l4.52,4.52L17.42,3.64c0.2-0.2,0.48-0.32,0.76-0.32
	s0.56,0.11,0.76,0.32s0.32,0.48,0.32,0.76c0,0.29-0.11,0.56-0.32,0.76L7.87,16.36C7.67,16.56,7.39,16.68,7.11,16.68z"/>
</svg>
