
<svg version="1.1" id="Layer_1" xmlns="http://www.w3.org/2000/svg" xmlns:xlink="http://www.w3.org/1999/xlink" x="0px" y="0px"
	 width="20px" height="20px" viewBox="0 0 20 20" style="enable-background:new 0 0 20 20;" xml:space="preserve">

		<path d="M4.77,19.3H1.45c-0.41,0-0.74-0.33-0.74-0.74v-3.39c0-0.2,0.08-0.39,0.22-0.53L13.97,1.59
			c1.18-1.18,3.23-1.18,4.41,0c1.22,1.22,1.22,3.19,0,4.41L5.3,19.08C5.16,19.22,4.97,19.3,4.77,19.3z M2.19,17.81h2.28L15.38,6.9
			l-2.31-2.31L2.19,15.47V17.81z M14.12,3.54l2.31,2.31l0.9-0.9c0.64-0.64,0.64-1.67,0-2.31c-0.62-0.62-1.69-0.62-2.31,0l0,0
			L14.12,3.54z M14.5,2.11L14.5,2.11L14.5,2.11z"/>
</svg>
