
<svg version="1.1" id="Layer_1" xmlns="http://www.w3.org/2000/svg" xmlns:xlink="http://www.w3.org/1999/xlink" x="0px" y="0px"
	 width="20px" height="20px" viewBox="0 0 20 20" style="enable-background:new 0 0 20 20;" xml:space="preserve">

<path d="M10,19.82c-5.42,0-9.82-4.41-9.82-9.82c0-5.42,4.41-9.82,9.82-9.82s9.82,4.41,9.82,9.82
	C19.82,15.42,15.42,19.82,10,19.82z M10,1.88c-4.48,0-8.12,3.64-8.12,8.12s3.64,8.12,8.12,8.12s8.12-3.64,8.12-8.12
	S14.48,1.88,10,1.88z"/>
<circle cx="9.71" cy="5.95" r="1.17"/>
<path d="M10.8,15.56h-0.78c-0.43,0-0.77-0.35-0.77-0.77v-3.54H8.94c-0.43,0-0.77-0.35-0.77-0.77S8.52,9.7,8.94,9.7h1.08
	c0.43,0,0.77,0.35,0.77,0.77l0,3.54c0.43,0,0.77,0.35,0.77,0.77S11.23,15.56,10.8,15.56z"/>
</svg>