
<svg version="1.1" id="Layer_1" xmlns="http://www.w3.org/2000/svg" xmlns:xlink="http://www.w3.org/1999/xlink" x="0px" y="0px"
	 width="20px" height="20px" viewBox="0 0 20 20" style="enable-background:new 0 0 20 20;" xml:space="preserve">
	
	<path  d="M9.6,14.01c-0.5,0-0.91,0.41-0.91,0.91s0.41,0.91,0.91,0.91c0.5,0,0.91-0.41,0.91-0.91S10.1,14.01,9.6,14.01z"/>
	<path  d="M7.03,5.55c-0.35,0.35-0.35,0.94,0,1.29s0.94,0.35,1.29,0l0.01,0.01c0.66-0.53,1.59-0.53,2.26,0
		c0.79,0.62,0.92,1.77,0.3,2.55l-1.94,1.93c-0.35,0.35-0.35,0.94,0,1.29c0.35,0.35,0.94,0.35,1.29,0l1.93-1.93
		c1.42-1.42,1.42-3.72,0-5.14S8.45,4.13,7.03,5.55z"/>
<path  d="M10,0.2c-5.41,0-9.8,4.39-9.8,9.8s4.39,9.8,9.8,9.8s9.8-4.39,9.8-9.8S15.41,0.2,10,0.2z M10,18.04
	c-4.44,0-8.04-3.6-8.04-8.04S5.56,1.96,10,1.96s8.04,3.6,8.04,8.04S14.44,18.04,10,18.04z"/>

</svg>
