
<svg version="1.1" id="Layer_1" xmlns="http://www.w3.org/2000/svg" xmlns:xlink="http://www.w3.org/1999/xlink" x="0px" y="0px"
	 width="20px" height="20px" viewBox="0 0 20 20" style="enable-background:new 0 0 20 20;" xml:space="preserve">

		<path  d="M12.04,14.18H7.96c-0.42,0-0.75,0.34-0.75,0.75c0,0.42,0.34,0.75,0.75,0.75h4.08
	c0.42,0,0.75-0.34,0.75-0.75C12.8,14.52,12.46,14.18,12.04,14.18z"/>
<path  d="M12.04,11.04H7.96c-0.42,0-0.75,0.34-0.75,0.75s0.34,0.75,0.75,0.75h4.08c0.42,0,0.75-0.34,0.75-0.75
	S12.46,11.04,12.04,11.04z"/>
<path  d="M12.04,7.7H7.96C7.54,7.7,7.2,8.04,7.2,8.46s0.34,0.75,0.75,0.75h4.08c0.42,0,0.75-0.34,0.75-0.75
	S12.46,7.7,12.04,7.7z"/>
<path  d="M14.85,2.44h-1.28c-0.33-1.12-1.37-1.94-2.6-1.94H9.03c-1.23,0-2.27,0.82-2.6,1.94H5.15
	c-1.5,0-2.71,1.22-2.71,2.71v11.63c0,1.5,1.22,2.71,2.71,2.71h9.69c1.5,0,2.71-1.22,2.71-2.71V5.15
	C17.56,3.66,16.34,2.44,14.85,2.44z M9.03,2.05h1.94c0.64,0,1.16,0.52,1.16,1.16s-0.52,1.16-1.16,1.16H9.03
	c-0.64,0-1.16-0.52-1.16-1.16S8.39,2.05,9.03,2.05z M16.01,16.79c0,0.64-0.52,1.16-1.16,1.16H5.15c-0.64,0-1.16-0.52-1.16-1.16V5.15
	c0-0.64,0.52-1.16,1.16-1.16h1.28c0.33,1.12,1.37,1.94,2.6,1.94h1.94c1.23,0,2.27-0.82,2.6-1.94h1.28c0.64,0,1.16,0.52,1.16,1.16
	V16.79z"/>

</svg>
