
<svg version="1.1" id="Layer_1" xmlns="http://www.w3.org/2000/svg" xmlns:xlink="http://www.w3.org/1999/xlink" x="0px" y="0px"
	 width="20px" height="20px" viewBox="0 0 20 20" style="enable-background:new 0 0 20 20;" xml:space="preserve">
<path d="M4.59,19.5c-2.32,0-4.2-2.01-4.2-4.49v-1.15c0-0.57,0.43-1.03,0.95-1.03s0.95,0.46,0.95,1.03v1.15
	c0,1.34,1.03,2.43,2.29,2.43h10.81c1.26,0,2.29-1.09,2.29-2.43v-1.15c0-0.57,0.43-1.03,0.95-1.03c0.53,0,0.95,0.46,0.95,1.03v1.15
	c0,2.47-1.88,4.49-4.2,4.49H4.59z M10.02,14.89c-0.16,0-0.28-0.03-0.38-0.08c-0.12-0.05-0.22-0.13-0.31-0.22L5,9.97
	c-0.38-0.4-0.38-1.06,0-1.46c0.18-0.19,0.42-0.3,0.67-0.3c0.25,0,0.49,0.11,0.67,0.3l2.7,2.88V1.53C9.05,0.96,9.47,0.5,10,0.5
	c0.53,0,0.95,0.46,0.95,1.03v9.87l2.7-2.88c0.18-0.19,0.42-0.3,0.67-0.3s0.49,0.11,0.67,0.3c0.38,0.4,0.38,1.06,0,1.46l-4.33,4.61
	c-0.09,0.1-0.2,0.17-0.31,0.22C10.25,14.86,10.14,14.88,10.02,14.89L10.02,14.89z"/>
</svg>
