
<svg version="1.1" id="Layer_1" xmlns="http://www.w3.org/2000/svg" xmlns:xlink="http://www.w3.org/1999/xlink" x="0px" y="0px"
	 width="20px" height="20px" viewBox="0 0 20 20" style="enable-background:new 0 0 20 20;" xml:space="preserve">

	<path d="M14.85,19.5H5.15c-1.5,0-2.71-1.22-2.71-2.71V5.15c0-1.5,1.22-2.71,2.71-2.71h1.28
	C6.76,1.32,7.8,0.5,9.03,0.5h1.94c1.23,0,2.27,0.82,2.6,1.94h1.28c1.5,0,2.71,1.22,2.71,2.71v11.63
	C17.56,18.28,16.34,19.5,14.85,19.5z M5.15,3.99c-0.64,0-1.16,0.52-1.16,1.16v11.63c0,0.64,0.52,1.16,1.16,1.16h9.69
	c0.64,0,1.16-0.52,1.16-1.16V5.15c0-0.64-0.52-1.16-1.16-1.16h-1.28c-0.33,1.12-1.37,1.94-2.6,1.94H9.03c-1.23,0-2.27-0.82-2.6-1.94
	H5.15z M7.87,3.21c0,0.64,0.52,1.16,1.16,1.16h1.94c0.64,0,1.16-0.52,1.16-1.16s-0.52-1.16-1.16-1.16H9.03
	C8.39,2.05,7.87,2.57,7.87,3.21z M9.03,14.65c-0.21,0-0.4-0.08-0.55-0.23l-1.94-1.94c-0.3-0.3-0.3-0.79,0-1.1
	c0.3-0.3,0.79-0.3,1.1,0l1.39,1.39l3.33-3.33c0.3-0.3,0.79-0.3,1.1,0c0.3,0.3,0.3,0.79,0,1.1l-3.88,3.88
	C9.43,14.57,9.24,14.65,9.03,14.65z"/>

</svg>
