
<svg version="1.1" id="Layer_1" xmlns="http://www.w3.org/2000/svg" xmlns:xlink="http://www.w3.org/1999/xlink" x="0px" y="0px"
	 width="20px" height="20px" viewBox="0 0 20 20" style="enable-background:new 0 0 20 20;" xml:space="preserve">

		<path d="M3,18.9c-1.6,0-2.9-1.3-2.9-2.9V7c0-1.6,1.3-2.9,2.9-2.9h3c0.5,0,0.9,0.4,0.9,0.9S6.5,5.9,6,5.9H3
	C2.39,5.9,1.9,6.39,1.9,7v9c0,0.61,0.49,1.1,1.1,1.1h14c0.61,0,1.1-0.49,1.1-1.1V7c0-0.61-0.49-1.1-1.1-1.1h-3
	c-0.5,0-0.9-0.4-0.9-0.9s0.4-0.9,0.9-0.9h3c1.6,0,2.9,1.3,2.9,2.9v9c0,1.6-1.3,2.9-2.9,2.9H3z M10,12.9c-0.12,0-0.24-0.02-0.34-0.07
	c-0.11-0.05-0.21-0.11-0.29-0.2l-3-3C6.19,9.47,6.1,9.24,6.1,9s0.09-0.47,0.26-0.64S6.76,8.1,7,8.1s0.47,0.09,0.64,0.26L9.1,9.83V2
	c0-0.5,0.4-0.9,0.9-0.9s0.9,0.4,0.9,0.9v7.83l1.46-1.46C12.53,8.19,12.76,8.1,13,8.1s0.47,0.09,0.64,0.26S13.9,8.76,13.9,9
	s-0.09,0.47-0.26,0.64l-3,3c-0.08,0.08-0.18,0.15-0.29,0.2C10.24,12.88,10.12,12.9,10,12.9L10,12.9z"/>
</svg>
