
<svg version="1.1"  xmlns="http://www.w3.org/2000/svg" xmlns:xlink="http://www.w3.org/1999/xlink" x="0px" y="0px"
	 width="20px" height="20px" viewBox="0 0 20 20" style="enable-background:new 0 0 20 20;" xml:space="preserve">

	<path d="M10,19.96c-5.5,0-9.96-4.46-9.96-9.96S4.5,0.04,10,0.04S19.96,4.5,19.96,10S15.5,19.96,10,19.96z M10,17.97
		c4.4,0,7.97-3.57,7.97-7.97S14.4,2.03,10,2.03S2.03,5.6,2.03,10S5.6,17.97,10,17.97z M11,9.59l2.53,2.52
		c0.39,0.39,0.39,1.02,0,1.41s-1.02,0.39-1.41,0L9.3,10.7C9.11,10.51,9.01,10.26,9,10V6.01c0-0.55,0.45-1,1-1s1,0.45,1,1V9.59z"/>

</svg>
