
<svg version="1.1" id="Layer_1" xmlns="http://www.w3.org/2000/svg" xmlns:xlink="http://www.w3.org/1999/xlink" x="0px" y="0px"
	 width="20px" height="20px" viewBox="0 0 20 20" style="enable-background:new 0 0 20 20;" xml:space="preserve">
<path d="M16.98,19.06H3.03c-1.09,0-2.07-0.56-2.62-1.51c-0.55-0.95-0.55-2.07,0-3.02L7.38,2.45
	C7.93,1.5,8.91,0.94,10,0.94c1.09,0,2.07,0.56,2.62,1.51l6.97,12.08c0.55,0.95,0.55,2.07,0,3.02C19.04,18.5,18.07,19.06,16.98,19.06
	z M10,2.95c-0.18,0-0.61,0.05-0.87,0.5L2.15,15.54c-0.26,0.45-0.09,0.86,0,1.01c0.09,0.15,0.35,0.5,0.87,0.5h13.95
	c0.52,0,0.78-0.35,0.87-0.5c0.09-0.15,0.26-0.55,0-1.01L10.87,3.46C10.61,3,10.17,2.95,10,2.95z M10.01,15.03
	C9.45,15.03,9,14.58,9,14.03c0-0.56,0.45-1.01,1-1.01h0.01c0.56,0,1.01,0.45,1.01,1.01C11.02,14.58,10.57,15.03,10.01,15.03z
	 M10,11.01c-0.56,0-1.01-0.45-1.01-1.01V7.99c0-0.56,0.45-1.01,1.01-1.01c0.56,0,1.01,0.45,1.01,1.01V10
	C11.01,10.56,10.56,11.01,10,11.01z"/>
</svg>
