
<svg version="1.1" id="Layer_1" xmlns="http://www.w3.org/2000/svg" xmlns:xlink="http://www.w3.org/1999/xlink" x="0px" y="0px"
	 width="20px" height="20px" viewBox="0 0 20 20" style="enable-background:new 0 0 20 20;" xml:space="preserve">
<path d="M5.28,17.36c-1.46,0-2.64-1.18-2.64-2.64V5.28c0-1.46,1.18-2.64,2.64-2.64h9.44c1.46,0,2.64,1.18,2.64,2.64
	v9.44c0,1.46-1.18,2.64-2.64,2.64H5.28z M5.28,4.76C5,4.76,4.76,5,4.76,5.28v9.44c0,0.29,0.23,0.52,0.52,0.52h9.44
	c0.29,0,0.52-0.23,0.52-0.52V5.28c0-0.29-0.23-0.52-0.52-0.52H5.28z"/>
</svg>
