<?xml version="1.0" encoding="utf-8"?>
<!-- Generator: Adobe Illustrator 25.0.1, SVG Export Plug-In . SVG Version: 6.00 Build 0)  -->
<svg version="1.1" id="Layer_1" xmlns="http://www.w3.org/2000/svg" xmlns:xlink="http://www.w3.org/1999/xlink" x="0px" y="0px"
	 width="20px" height="20px" viewBox="0 0 20 20" style="enable-background:new 0 0 20 20;" xml:space="preserve">
<path d="M11.27,10l5.02-5.02c0.35-0.35,0.35-0.92,0-1.27c-0.35-0.35-0.92-0.35-1.27,0L10,8.73L4.98,3.71
	c-0.35-0.35-0.92-0.35-1.27,0c-0.35,0.35-0.35,0.92,0,1.27L8.73,10l-5.02,5.02c-0.35,0.35-0.35,0.92,0,1.27
	c0.18,0.18,0.41,0.26,0.64,0.26s0.46-0.09,0.64-0.26L10,11.27l5.02,5.02c0.18,0.18,0.41,0.26,0.64,0.26s0.46-0.09,0.64-0.26
	c0.35-0.35,0.35-0.92,0-1.27L11.27,10z"/>
</svg>
