
<svg version="1.1" id="Layer_1" xmlns="http://www.w3.org/2000/svg" xmlns:xlink="http://www.w3.org/1999/xlink" x="0px" y="0px"
	 width="20px" height="20px" viewBox="0 0 20 20" style="enable-background:new 0 0 20 20;" xml:space="preserve">
<path d="M10,0.18c5.42,0,9.82,4.39,9.82,9.82s-4.39,9.82-9.82,9.82S0.18,15.42,0.18,10S4.58,0.18,10,0.18z
	 M10,2.15c-4.34,0-7.85,3.52-7.85,7.85s3.52,7.85,7.85,7.85s7.85-3.52,7.85-7.85S14.34,2.15,10,2.15z"/>
<path d="M8.75,13.93c-0.27,0-0.52-0.11-0.71-0.29l-2.5-2.5c-0.39-0.39-0.39-1.02,0-1.42
	c0.39-0.39,1.02-0.39,1.42,0l1.79,1.79l4.3-4.3c0.39-0.39,1.02-0.39,1.42,0c0.39,0.39,0.39,1.02,0,1.42l-5,5
	C9.27,13.82,9.01,13.93,8.75,13.93z"/>
</svg>

