
<svg version="1.1" id="Layer_1" xmlns="http://www.w3.org/2000/svg" xmlns:xlink="http://www.w3.org/1999/xlink" x="0px" y="0px"
	 width="20px" height="20px" viewBox="0 0 20 20" style="enable-background:new 0 0 20 20;" xml:space="preserve">
<path d="M3,17.9c-1.6,0-2.9-1.3-2.9-2.9V5c0-1.6,1.3-2.9,2.9-2.9h14c1.6,0,2.9,1.3,2.9,2.9v10
	c0,1.6-1.3,2.9-2.9,2.9H3z M1.9,15c0,0.61,0.49,1.1,1.1,1.1h14c0.61,0,1.1-0.49,1.1-1.1V7.68l-6.49,4.33
	c-0.48,0.32-1.04,0.49-1.61,0.49c-0.57,0-1.13-0.17-1.61-0.49L1.9,7.68V15z M3,3.9C2.39,3.9,1.9,4.39,1.9,5v0.46l7.49,5.05
	C9.57,10.63,9.78,10.7,10,10.7s0.43-0.06,0.61-0.19l7.45-4.96L18.1,5c0-0.61-0.49-1.1-1.1-1.1H3z"/>
</svg>
