
<svg version="1.1" id="Layer_1" xmlns="http://www.w3.org/2000/svg" xmlns:xlink="http://www.w3.org/1999/xlink" x="0px" y="0px"
	 width="20px" height="20px" viewBox="0 0 20 20" style="enable-background:new 0 0 20 20;" xml:space="preserve">

	<path d="M8.06,8.28H7.09c-0.41,0-0.75,0.34-0.75,0.75s0.34,0.75,0.75,0.75h0.97c0.41,0,0.75-0.34,0.75-0.75
		S8.47,8.28,8.06,8.28z"/>
	<path d="M18.74,17.99h-1.19V3.2c0-1.48-1.21-2.69-2.69-2.69H5.14c-1.48,0-2.69,1.21-2.69,2.69v14.79H1.26
		c-0.41,0-0.75,0.34-0.75,0.75s0.34,0.75,0.75,0.75h17.48c0.41,0,0.75-0.34,0.75-0.75S19.15,17.99,18.74,17.99z M11.19,17.99H8.81
		v-4.1c0-0.12,0.1-0.22,0.22-0.22h1.94c0.12,0,0.22,0.1,0.22,0.22V17.99z M16.05,17.99h-3.36v-4.1c0-0.95-0.77-1.72-1.72-1.72H9.03
		c-0.95,0-1.72,0.77-1.72,1.72v4.1H3.95V3.2c0-0.66,0.53-1.19,1.19-1.19h9.71c0.66,0,1.19,0.53,1.19,1.19V17.99z"/>
	<path d="M12.91,4.39h-0.97c-0.41,0-0.75,0.34-0.75,0.75s0.34,0.75,0.75,0.75h0.97
		c0.41,0,0.75-0.34,0.75-0.75S13.33,4.39,12.91,4.39z"/>
	<path d="M12.91,8.28h-0.97c-0.41,0-0.75,0.34-0.75,0.75s0.34,0.75,0.75,0.75h0.97
		c0.41,0,0.75-0.34,0.75-0.75S13.33,8.28,12.91,8.28z"/>
	<path d="M8.06,4.39H7.09c-0.41,0-0.75,0.34-0.75,0.75s0.34,0.75,0.75,0.75h0.97c0.41,0,0.75-0.34,0.75-0.75
		S8.47,4.39,8.06,4.39z"/>

</svg>
