
<svg version="1.1" id="Layer_1" xmlns="http://www.w3.org/2000/svg" xmlns:xlink="http://www.w3.org/1999/xlink" x="0px" y="0px"
	 width="20px" height="20px" viewBox="0 0 20 20" style="enable-background:new 0 0 20 20;" xml:space="preserve">
	
	<path d="M10,13.92c-0.54,0-0.98,0.44-0.98,0.98c0,0.54,0.44,0.98,0.98,0.98s0.98-0.44,0.98-0.98
		C10.98,14.36,10.54,13.92,10,13.92z"/>
	<path d="M7.23,5.27c-0.38,0.38-0.38,1.01,0,1.39s1.01,0.38,1.39,0l0.01,0.01c0.71-0.57,1.72-0.57,2.44,0
		c0.85,0.67,0.99,1.91,0.32,2.75L9.3,11.5c-0.38,0.38-0.38,1.01,0,1.39c0.38,0.38,1.01,0.38,1.39,0l2.08-2.08
		c1.53-1.53,1.53-4.01,0-5.55S8.76,3.74,7.23,5.27z"/>
	<path d="M10,0.2c-5.41,0-9.8,4.39-9.8,9.8c0,5.41,4.39,9.8,9.8,9.8s9.8-4.39,9.8-9.8
		C19.8,4.59,15.41,0.2,10,0.2z M10,18.04c-4.44,0-8.04-3.6-8.04-8.04c0-4.44,3.6-8.04,8.04-8.04c4.44,0,8.04,3.6,8.04,8.04
		C18.04,14.44,14.44,18.04,10,18.04z"/>
</svg>
