
<svg version="1.1" xmlns="http://www.w3.org/2000/svg" xmlns:xlink="http://www.w3.org/1999/xlink" x="0px" y="0px"
	 width="20px" height="20px" viewBox="0 0 20 20" style="enable-background:new 0 0 20 20;" xml:space="preserve">

	<path  d="M5.45,18.64c-2.09,0-3.79-1.7-3.79-3.79V5.15c0-2.09,1.7-3.79,3.79-3.79h3.88c2.09,0,3.79,1.7,3.79,3.79v0.97
	c0,0.48-0.39,0.87-0.87,0.87c-0.48,0-0.87-0.39-0.87-0.87V5.15c0-1.12-0.91-2.04-2.04-2.04H5.45c-1.12,0-2.04,0.91-2.04,2.04v9.71
	c0,1.12,0.91,2.04,2.04,2.04h3.88c1.12,0,2.04-0.91,2.04-2.04v-0.97c0-0.48,0.39-0.87,0.87-0.87c0.48,0,0.87,0.39,0.87,0.87v0.97
	c0,2.09-1.7,3.79-3.79,3.79H5.45z M15.24,14.76c-0.23,0-0.45-0.09-0.62-0.26s-0.26-0.38-0.26-0.62c0-0.23,0.09-0.45,0.26-0.62
	l2.39-2.39H5.54c-0.48,0-0.87-0.39-0.87-0.87s0.39-0.87,0.87-0.87h11.48l-2.39-2.39c-0.16-0.16-0.26-0.38-0.26-0.62
	c0-0.23,0.09-0.45,0.26-0.62c0.16-0.16,0.38-0.26,0.62-0.26c0.23,0,0.45,0.09,0.62,0.26l3.88,3.88c0.08,0.08,0.15,0.18,0.19,0.28
	C19.98,9.77,20,9.88,20,10c0,0.12-0.02,0.23-0.07,0.33c-0.04,0.11-0.11,0.2-0.19,0.29l-3.88,3.88
	C15.7,14.67,15.48,14.76,15.24,14.76z"/>
</svg>