
<svg version="1.1" id="Layer_1" xmlns="http://www.w3.org/2000/svg" xmlns:xlink="http://www.w3.org/1999/xlink" x="0px" y="0px"
	 width="20px" height="20px" viewBox="0 0 20 20" style="enable-background:new 0 0 20 20;" xml:space="preserve">
<path d="M9,19.9c-1.05,0-1.9-0.85-1.9-1.9v-0.65l-0.06-0.03c-0.68-0.28-1.32-0.64-1.9-1.1l-0.05-0.04l-0.56,0.32
	c-0.29,0.17-0.62,0.26-0.96,0.26c-0.67,0-1.3-0.36-1.64-0.94l-1-1.75c-0.52-0.91-0.21-2.07,0.69-2.59l0.56-0.32L2.17,11.1
	c-0.1-0.73-0.1-1.46,0-2.19l0.01-0.07L1.62,8.5c-0.9-0.52-1.21-1.68-0.69-2.58l1-1.74C2.27,3.6,2.9,3.23,3.57,3.23
	c0.33,0,0.66,0.09,0.95,0.25l0.56,0.33l0.05-0.04c0.58-0.46,1.22-0.83,1.91-1.12L7.1,2.64V2c0-1.05,0.85-1.9,1.9-1.9h2
	c1.05,0,1.9,0.85,1.9,1.9v0.65l0.06,0.03c0.68,0.28,1.32,0.64,1.9,1.1l0.05,0.04l0.56-0.32c0.29-0.17,0.62-0.26,0.96-0.26
	c0.67,0,1.3,0.36,1.64,0.94l1,1.75c0.52,0.91,0.21,2.07-0.69,2.59l-0.56,0.32l0.01,0.07c0.1,0.73,0.1,1.47,0,2.19l-0.01,0.07
	l0.56,0.33c0.9,0.52,1.21,1.68,0.69,2.58l-1,1.74c-0.34,0.58-0.97,0.95-1.65,0.95c-0.33,0-0.66-0.09-0.95-0.25l-0.56-0.33
	l-0.05,0.04c-0.58,0.46-1.22,0.83-1.91,1.12l-0.06,0.03V18c0,1.05-0.85,1.9-1.9,1.9H9z M8.9,18.1h2.2v-2.06l0.64-0.18
	c0.91-0.27,1.76-0.77,2.45-1.42l0.49-0.46l1.79,1.03l1.1-1.91l-1.78-1.02l0.15-0.66c0.22-0.92,0.22-1.9,0-2.83l-0.15-0.66l1.78-1.02
	l-1.1-1.91l-1.79,1.03l-0.49-0.46c-0.69-0.66-1.53-1.15-2.44-1.42L11.1,3.96V1.9H8.9v2.06L8.26,4.14C7.35,4.42,6.5,4.91,5.81,5.57
	L5.33,6.03L3.53,4.99l-1.1,1.91l1.78,1.02L4.06,8.59c-0.22,0.92-0.22,1.9,0,2.83l0.15,0.66l-1.78,1.02l1.1,1.91l1.79-1.03l0.49,0.46
	c0.69,0.65,1.53,1.15,2.44,1.42l0.65,0.18V18.1z M10,13.9c-2.15,0-3.9-1.75-3.9-3.9S7.85,6.1,10,6.1s3.9,1.75,3.9,3.9
	S12.15,13.9,10,13.9z M10,7.9c-1.16,0-2.1,0.94-2.1,2.1s0.94,2.1,2.1,2.1s2.1-0.94,2.1-2.1S11.16,7.9,10,7.9z"/>
</svg>
