
<svg version="1.1" id="Layer_1" xmlns="http://www.w3.org/2000/svg" xmlns:xlink="http://www.w3.org/1999/xlink" x="0px" y="0px"
	 width="20px" height="20px" viewBox="0 0 20 20" style="enable-background:new 0 0 20 20;" xml:space="preserve">
<path d="M6.95,18.83c-0.8,0-1.46-0.7-1.46-1.57v-2.44h-2.3c-0.8,0-1.46-0.7-1.46-1.57V2.74
	c0-0.87,0.65-1.57,1.46-1.57h9.86c0.8,0,1.46,0.7,1.46,1.57v2.44h2.3c0.8,0,1.46,0.7,1.46,1.57v10.52c0,0.87-0.65,1.57-1.46,1.57
	H6.95z M7,17.19h9.75V6.81H7V17.19z M3.25,13.19h2.24V6.75c0-0.87,0.65-1.57,1.46-1.57H13V2.81H3.25V13.19z"/>
</svg>
