
<svg version="1.1" id="Layer_1" xmlns="http://www.w3.org/2000/svg" xmlns:xlink="http://www.w3.org/1999/xlink" x="0px" y="0px"
	 width="20px" height="20px" viewBox="0 0 20 20" style="enable-background:new 0 0 20 20;" xml:space="preserve">

	<path d="M15.36,19.44c-0.47,0-0.86-0.38-0.86-0.86v-2.36h-2.36c-0.47,0-0.86-0.38-0.86-0.86
	s0.38-0.86,0.86-0.86h2.36v-2.36c0-0.47,0.38-0.86,0.86-0.86s0.86,0.38,0.86,0.86v2.36h2.36c0.47,0,0.86,0.38,0.86,0.86
	s-0.38,0.86-0.86,0.86h-2.36v2.36C16.22,19.06,15.84,19.44,15.36,19.44z M5.71,19.44H3.56c-1.66,0-3-1.35-3-3v-2.15
	c0-1.66,1.35-3,3-3h2.15c1.66,0,3,1.35,3,3v2.15C8.71,18.1,7.37,19.44,5.71,19.44z M3.56,13c-0.71,0-1.29,0.58-1.29,1.29v2.15
	c0,0.71,0.58,1.29,1.29,1.29h2.15c0.71,0,1.29-0.58,1.29-1.29v-2.15C7,13.58,6.42,13,5.71,13H3.56z M16.44,8.71h-2.15
	c-1.66,0-3-1.35-3-3V3.56c0-1.66,1.35-3,3-3h2.15c1.66,0,3,1.35,3,3v2.15C19.44,7.37,18.1,8.71,16.44,8.71z M14.29,2.28
	C13.58,2.28,13,2.85,13,3.56v2.15C13,6.42,13.58,7,14.29,7h2.15c0.71,0,1.29-0.58,1.29-1.29V3.56c0-0.71-0.58-1.29-1.29-1.29H14.29z
	 M5.71,8.71H3.56c-1.66,0-3-1.35-3-3V3.56c0-1.66,1.35-3,3-3h2.15c1.66,0,3,1.35,3,3v2.15C8.71,7.37,7.37,8.71,5.71,8.71z
	 M3.56,2.28c-0.71,0-1.29,0.58-1.29,1.29v2.15C2.28,6.42,2.85,7,3.56,7h2.15C6.42,7,7,6.42,7,5.71V3.56c0-0.71-0.58-1.29-1.29-1.29
	H3.56z"/>

</svg>
