
<svg version="1.1" id="Layer_1" xmlns="http://www.w3.org/2000/svg" xmlns:xlink="http://www.w3.org/1999/xlink" x="0px" y="0px"
	 width="20px" height="20px" viewBox="0 0 20 20" style="enable-background:new 0 0 20 20;" xml:space="preserve">
<path d="M10,16c-0.55,0-1-0.45-1-1v-2c0-0.55,0.45-1,1-1s1,0.45,1,1v2C11,15.55,10.55,16,10,16z"/>
<path d="M4,19.9c-1.6,0-2.9-1.3-2.9-2.9v-6c0-1.6,1.3-2.9,2.9-2.9h1.1V5c0-2.7,2.2-4.9,4.9-4.9
	s4.9,2.2,4.9,4.9v3.1H16c1.6,0,2.9,1.3,2.9,2.9v6c0,1.6-1.3,2.9-2.9,2.9H4z M4,9.9c-0.61,0-1.1,0.49-1.1,1.1v6
	c0,0.61,0.49,1.1,1.1,1.1h12c0.61,0,1.1-0.49,1.1-1.1v-6c0-0.61-0.49-1.1-1.1-1.1H4z M10,1.9C8.29,1.9,6.9,3.29,6.9,5v3.1h6.2V5
	C13.1,3.29,11.71,1.9,10,1.9z"/>
</svg>
