
<svg version="1.1" id="Layer_1" xmlns="http://www.w3.org/2000/svg" xmlns:xlink="http://www.w3.org/1999/xlink" x="0px" y="0px"
	 width="20px" height="20px" viewBox="0 0 20 20" style="enable-background:new 0 0 20 20;" xml:space="preserve">
<g >
	<path d="M0,10.01c0-0.29,0.12-0.58,0.32-0.78l7.76-7.76c0.43-0.44,1.13-0.45,1.57-0.03
		c0.44,0.43,0.45,1.13,0.03,1.57C9.67,3.02,9.66,3.03,9.65,3.04l-6.97,6.98l6.97,6.97c0.43,0.44,0.41,1.14-0.03,1.57
		c-0.43,0.41-1.11,0.41-1.54,0L0.32,10.8C0.11,10.58,0,10.3,0,10.01z"/>
</g>
<g >
	<path d="M10.01,10.01c0-0.29,0.12-0.58,0.32-0.78l7.76-7.76
		c0.43-0.44,1.13-0.45,1.57-0.03c0.44,0.43,0.45,1.13,0.03,1.57c-0.01,0.01-0.02,0.02-0.03,0.03l-6.97,6.98l6.97,6.97
		c0.43,0.44,0.41,1.14-0.03,1.57c-0.43,0.41-1.11,0.41-1.54,0l-7.76-7.76C10.12,10.58,10.01,10.3,10.01,10.01z"/>
</g>
</svg>
