
<svg version="1.1" id="Layer_1" xmlns="http://www.w3.org/2000/svg" xmlns:xlink="http://www.w3.org/1999/xlink" x="0px" y="0px"
	 width="20px" height="20px" viewBox="0 0 20 20" style="enable-background:new 0 0 20 20;" xml:space="preserve">
<path d="M17.74,18.71c-0.53,0-0.97-0.43-0.97-0.97v-2.26c-1.62,2.01-4.08,3.22-6.77,3.22c-4.38,0-8.1-3.28-8.64-7.62
	c-0.07-0.53,0.31-1.01,0.84-1.08c0.52-0.07,1.01,0.31,1.08,0.84c0.42,3.38,3.31,5.92,6.72,5.92c2.26,0,4.32-1.1,5.56-2.9H12.9
	c-0.53,0-0.97-0.43-0.97-0.97s0.43-0.97,0.97-0.97h4.25c0.01,0,0.03,0,0.04,0h0.54c0.53,0,0.97,0.43,0.97,0.97v4.84
	C18.71,18.27,18.27,18.71,17.74,18.71z M17.68,10c-0.48,0-0.9-0.36-0.96-0.85C16.3,5.78,13.41,3.23,10,3.23
	c-2.26,0-4.32,1.1-5.56,2.9H7.1c0.53,0,0.97,0.43,0.97,0.97S7.63,8.07,7.1,8.07H2.85c-0.01,0-0.03,0-0.04,0H2.26
	c-0.53,0-0.97-0.43-0.97-0.97V2.26c0-0.53,0.43-0.97,0.97-0.97s0.97,0.43,0.97,0.97v2.26C4.85,2.51,7.31,1.29,10,1.29
	c4.38,0,8.1,3.28,8.64,7.62c0.07,0.53-0.31,1.01-0.84,1.08C17.76,10,17.72,10,17.68,10z"/>
</svg>
