
<svg version="1.1" id="Layer_1" xmlns="http://www.w3.org/2000/svg" xmlns:xlink="http://www.w3.org/1999/xlink" x="0px" y="0px"
	 width="20px" height="20px" viewBox="0 0 20 20" style="enable-background:new 0 0 20 20;" xml:space="preserve">

	<path d="M12.83,8.22c-0.46,0-0.84,0.38-0.84,0.84s0.38,0.84,0.84,0.84c2.54,0,4.61-2.07,4.61-4.61
		c0-2.54-2.07-4.61-4.61-4.61c-0.46,0-0.84,0.38-0.84,0.84s0.38,0.84,0.84,0.84c1.61,0,2.93,1.31,2.93,2.93S14.44,8.22,12.83,8.22z"
		/>
	<path d="M9.06,11.98H5.29c-2.54,0-4.61,2.07-4.61,4.61v1.88c0,0.46,0.38,0.84,0.84,0.84s0.84-0.38,0.84-0.84
		v-1.88c0-1.61,1.31-2.93,2.93-2.93h3.77c1.61,0,2.93,1.31,2.93,2.93v1.88c0,0.46,0.38,0.84,0.84,0.84s0.84-0.38,0.84-0.84v-1.88
		C13.67,14.05,11.6,11.98,9.06,11.98z"/>
	<path d="M7.17,9.9c2.54,0,4.61-2.07,4.61-4.61c0-2.54-2.07-4.61-4.61-4.61c-2.54,0-4.61,2.07-4.61,4.61
		C2.56,7.83,4.63,9.9,7.17,9.9z M7.17,2.36c1.61,0,2.93,1.31,2.93,2.93S8.79,8.22,7.17,8.22S4.25,6.9,4.25,5.29S5.56,2.36,7.17,2.36
		z"/>
	<path d="M14.71,11.98c-0.46,0-0.84,0.38-0.84,0.84s0.38,0.84,0.84,0.84c1.61,0,2.93,1.31,2.93,2.93v1.88
		c0,0.46,0.38,0.84,0.84,0.84s0.84-0.38,0.84-0.84v-1.88C19.32,14.05,17.25,11.98,14.71,11.98z"/>
</svg>
