
<svg version="1.1" id="Layer_1" xmlns="http://www.w3.org/2000/svg" xmlns:xlink="http://www.w3.org/1999/xlink" x="0px" y="0px"
	 width="20px" height="20px" viewBox="0 0 20 20" style="enable-background:new 0 0 20 20;" xml:space="preserve">
<path d="M4.59,19.5c-2.32,0-4.2-2.01-4.2-4.49v-1.15c0-0.57,0.43-1.03,0.95-1.03s0.95,0.46,0.95,1.03v1.15
	c0,1.34,1.03,2.43,2.29,2.43h10.81c1.26,0,2.29-1.09,2.29-2.43v-1.15c0-0.57,0.43-1.03,0.95-1.03c0.53,0,0.95,0.46,0.95,1.03v1.15
	c0,2.47-1.88,4.49-4.2,4.49H4.59z M9.98,0.5c0.16,0,0.28,0.03,0.38,0.08c0.12,0.05,0.22,0.13,0.31,0.22L15,5.41
	c0.38,0.4,0.38,1.06,0,1.46c-0.18,0.19-0.42,0.3-0.67,0.3c-0.25,0-0.49-0.11-0.67-0.3l-2.7-2.88v9.87c0,0.57-0.43,1.03-0.95,1.03
	c-0.53,0-0.95-0.46-0.95-1.03V3.99l-2.7,2.88c-0.18,0.19-0.42,0.3-0.67,0.3S5.18,7.06,5,6.87c-0.38-0.4-0.38-1.06,0-1.46L9.33,0.8
	c0.09-0.1,0.2-0.17,0.31-0.22C9.75,0.53,9.86,0.5,9.98,0.5L9.98,0.5z"/>
</svg>
