
<svg version="1.1" id="Layer_1" xmlns="http://www.w3.org/2000/svg" xmlns:xlink="http://www.w3.org/1999/xlink" x="0px" y="0px"
	 width="20px" height="20px" viewBox="0 0 20 20" style="enable-background:new 0 0 20 20;" xml:space="preserve">


		<path d="M15.18,15.19c-2.86,2.87-7.51,2.87-10.37,0.01c0,0,0,0-0.01-0.01l-4.53-4.55c-0.36-0.36-0.36-0.94-0.01-1.3
	c0,0,0,0,0.01-0.01l4.54-4.54c2.86-2.87,7.51-2.87,10.37-0.01c0,0,0,0,0.01,0.01l4.54,4.54c0.36,0.36,0.36,0.94,0.01,1.3
	c0,0,0,0-0.01,0.01L15.18,15.19L15.18,15.19z M6.1,13.89c2.15,2.15,5.63,2.15,7.78,0L17.77,10l-3.89-3.89
	c-2.15-2.15-5.63-2.15-7.78,0L2.2,10L6.1,13.89L6.1,13.89z M9.99,13.67c-2.03,0-3.67-1.64-3.67-3.67s1.64-3.67,3.67-3.67
	s3.67,1.64,3.67,3.67S12.02,13.67,9.99,13.67z M9.99,11.84c1.01,0,1.83-0.82,1.83-1.83S11,8.17,9.99,8.17S8.16,8.99,8.16,10
	S8.98,11.84,9.99,11.84z"/>

</svg>
