
<svg version="1.1" id="Layer_1" xmlns="http://www.w3.org/2000/svg" xmlns:xlink="http://www.w3.org/1999/xlink" x="0px" y="0px"
	 width="20px" height="20px" viewBox="0 0 20 20" style="enable-background:new 0 0 20 20;" xml:space="preserve">

		<path d="M5.86,19.9c-1.51,0-2.78-1.18-2.89-2.69L2.16,5.9H2.07C1.5,5.9,1.1,5.5,1.1,5S1.5,4.1,2,4.1h4.1V2
	c0-1.05,0.85-1.9,1.9-1.9h4c1.05,0,1.9,0.85,1.9,1.9v2.1H18c0.5,0,0.9,0.4,0.9,0.9S18.5,5.9,18,5.9h-0.09l-0.08,0.09l-0.8,11.21
	c-0.11,1.51-1.38,2.69-2.89,2.69H5.86z M4.77,17.08c0.04,0.57,0.52,1.02,1.1,1.02h8.28c0.57,0,1.06-0.45,1.1-1.02l0.8-11.18H3.97
	L4.77,17.08z M7.9,4.1h4.2V1.9H7.9V4.1z M12,15.9c-0.5,0-0.9-0.4-0.9-0.9V9c0-0.5,0.4-0.9,0.9-0.9s0.9,0.4,0.9,0.9v6
	C12.9,15.5,12.5,15.9,12,15.9z M8,15.9c-0.5,0-0.9-0.4-0.9-0.9V9c0-0.5,0.4-0.9,0.9-0.9S8.9,8.5,8.9,9v6C8.9,15.5,8.5,15.9,8,15.9z"
	/>
</svg>
