
<svg version="1.1" id="Layer_1" xmlns="http://www.w3.org/2000/svg" xmlns:xlink="http://www.w3.org/1999/xlink" x="0px" y="0px"
	 width="20px" height="20px" viewBox="0 0 20 20" style="enable-background:new 0 0 20 20;" xml:space="preserve">

<path d="M10,19.82c-5.42,0-9.82-4.39-9.82-9.82S4.58,0.18,10,0.18s9.82,4.39,9.82,9.82
	S15.42,19.82,10,19.82z M10,17.85c4.34,0,7.85-3.52,7.85-7.85l0,0c0-4.34-3.52-7.85-7.85-7.85c0,0,0,0,0,0
	c-4.34,0-7.85,3.52-7.85,7.85l0,0C2.15,14.34,5.66,17.85,10,17.85C10,17.85,10,17.85,10,17.85z M12.94,9.02
	c0.54,0,0.98,0.44,0.98,0.98l0,0c0,0.54-0.44,0.98-0.98,0.98h0H7.06c-0.54,0-0.98-0.44-0.98-0.98l0,0c0-0.54,0.44-0.98,0.98-0.98h0
	H12.94z"/>
</svg>