<svg 
  width="20" 
  height="20" 
  class="group-hover:text-white transition duration-300 w-6 h-6 min-w-6 2xl:w-5 2xl:h-5 2xl:min-w-0 fill-current mr-3 lg:mr-0 2xl:mr-3 text-b-300" 
  xmlns="http://www.w3.org/2000/svg" 
  viewBox="0 0 20 20"
>
  <path 
    d="M10 19.96C4.5 19.96.04 15.5.04 10S4.5.04 10 .04 19.96 4.5 19.96 10 15.5 19.96 10 19.96zm0-1.99c4.4 0 7.97-3.57 7.97-7.97S14.4 2.03 10 2.03 2.03 5.6 2.03 10 5.6 17.97 10 17.97zm1-8.38l2.53 2.52a.996.996 0 1 1-1.41 1.41L9.3 10.7c-.19-.19-.29-.44-.3-.7V6.01c0-.55.45-1 1-1s1 .45 1 1v3.58z">
  </path>
</svg>