<svg version="1.1" id="Layer_1" xmlns="http://www.w3.org/2000/svg" xmlns:xlink="http://www.w3.org/1999/xlink" x="0px" y="0px"
	 width="20px" height="20px" viewBox="0 0 20 20" style="enable-background:new 0 0 20 20;" xml:space="preserve">
	

	<path  d="M11.88,11.98H8.12c-2.54,0-4.61,2.07-4.61,4.61v1.88c0,0.46,0.38,0.84,0.84,0.84s0.84-0.38,0.84-0.84v-1.88
	c0-1.61,1.31-2.93,2.93-2.93h3.77c1.61,0,2.93,1.31,2.93,2.93v1.88c0,0.46,0.38,0.84,0.84,0.84s0.84-0.38,0.84-0.84v-1.88
	C16.49,14.05,14.43,11.98,11.88,11.98z"/>
<path d="M10,9.9c2.54,0,4.61-2.07,4.61-4.61c0-2.54-2.07-4.61-4.61-4.61c-2.54,0-4.61,2.07-4.61,4.61
	C5.39,7.83,7.46,9.9,10,9.9z M10,2.36c1.61,0,2.93,1.31,2.93,2.93S11.61,8.22,10,8.22S7.07,6.9,7.07,5.29S8.39,2.36,10,2.36z"/>
</svg>