
<svg version="1.1" id="Layer_1" xmlns="http://www.w3.org/2000/svg" xmlns:xlink="http://www.w3.org/1999/xlink" x="0px" y="0px"
	 width="20px" height="20px" viewBox="0 0 20 20" style="enable-background:new 0 0 20 20;" xml:space="preserve">

	<path d="M14,19.9H2c-0.5,0-0.9-0.4-0.9-0.9v-1c0-3.8,3.1-6.9,6.9-6.9s6.9,3.1,6.9,6.9v1C14.9,19.5,14.5,19.9,14,19.9z
	 M2.9,18.1h10.2V18c0-2.8-2.3-5.1-5.1-5.1S2.9,15.2,2.9,18V18.1z M16.4,13.9c-0.5,0-0.8-0.4-0.8-0.8v-1.9h-1.9
	c-0.5,0-0.8-0.4-0.8-0.8s0.4-0.8,0.8-0.8h1.9V7.6c0-0.5,0.4-0.8,0.8-0.8c0.5,0,0.8,0.4,0.8,0.8v1.9h1.9c0.5,0,0.8,0.4,0.8,0.8
	s-0.4,0.8-0.8,0.8h-1.9v1.9C17.2,13.5,16.8,13.9,16.4,13.9z M8,9.9C5.3,9.9,3.1,7.7,3.1,5S5.3,0.1,8,0.1s4.9,2.2,4.9,4.9
	S10.7,9.9,8,9.9z M8,1.9C6.3,1.9,4.9,3.3,4.9,5S6.3,8.1,8,8.1s3.1-1.4,3.1-3.1S9.8,1.9,8,1.9z"/>

</svg>
