
<svg version="1.1" id="Layer_1" xmlns="http://www.w3.org/2000/svg" xmlns:xlink="http://www.w3.org/1999/xlink" x="0px" y="0px"
	 width="20px" height="20px" viewBox="0 0 20 20" style="enable-background:new 0 0 20 20;" xml:space="preserve">

		<path d="M4.19,11.99l-1.84-1.83l3.83-3.81c0.27-0.27,0.56-0.49,0.87-0.68c0.35-0.22,0.62-0.53,0.78-0.91l0.28-0.63
		c0.18-0.42-0.22-0.87-0.65-0.71c-0.93,0.35-1.8,0.9-2.55,1.64L0.47,9.51c0,0,0,0-0.01,0.01c-0.35,0.35-0.35,0.92,0.01,1.27
		l2.59,2.6c0.33,0.33,0.89,0.23,1.07-0.2l0.2-0.46C4.44,12.48,4.38,12.18,4.19,11.99z"/>
	<path d="M19.53,9.51l-4.45-4.45c0,0,0,0-0.01-0.01c-0.7-0.7-1.52-1.21-2.39-1.56l0.82-1.9c0.19-0.41,0.01-0.89-0.4-1.07
		c-0.41-0.19-0.89-0.01-1.07,0.4L4.25,18.4c-0.19,0.41-0.01,0.89,0.4,1.07c0.41,0.19,0.89,0.01,1.07-0.4l1.12-2.46
		c2.68,1.31,6.01,0.86,8.24-1.37l0.01-0.01l4.45-4.45c0,0,0,0,0.01-0.01C19.89,10.43,19.89,9.86,19.53,9.51z M10.48,8.44
		c0.75,0.22,1.3,0.9,1.3,1.72c0,0.99-0.8,1.8-1.8,1.8c-0.35,0-0.68-0.1-0.95-0.28L10.48,8.44z M13.8,13.97
		c-1.69,1.69-4.2,1.99-6.22,0.96l0.72-1.61c0.5,0.27,1.07,0.43,1.69,0.43c1.99,0,3.59-1.61,3.59-3.59c0-1.55-0.99-2.86-2.37-3.37
		l0.72-1.62c0.68,0.26,1.31,0.63,1.86,1.18l3.81,3.81L13.8,13.97z"/>

</svg>
