
<svg version="1.1" id="Layer_1" xmlns="http://www.w3.org/2000/svg" xmlns:xlink="http://www.w3.org/1999/xlink" x="0px" y="0px"
	 width="20px" height="20px" viewBox="0 0 20 20" style="enable-background:new 0 0 20 20;" xml:space="preserve">
<path d="M6.47,20c-0.94,0-1.71-0.82-1.71-1.82v-1.94H2.94c-0.94,0-1.71-0.82-1.71-1.82V7.47
	c0-1.01,0.76-1.82,1.71-1.82h1.82V1.82C4.76,0.82,5.53,0,6.47,0h7.06c0.94,0,1.71,0.82,1.71,1.82v3.83h1.82
	c0.94,0,1.71,0.82,1.71,1.82v6.94c0,1.01-0.77,1.82-1.71,1.82h-1.82v1.94c0,1.01-0.77,1.82-1.71,1.82H6.47z M13.59,18.24v-6.2H6.41
	v6.2H13.59z M17.12,14.47V7.41H2.88v7.06h1.88V12.1c0-1.01,0.76-1.82,1.71-1.82h7.06c0.94,0,1.71,0.82,1.71,1.82v2.37H17.12z
	 M13.59,5.65V1.76H6.41v3.88H13.59z"/>
</svg>
