
<svg version="1.1" id="Layer_1" xmlns="http://www.w3.org/2000/svg" xmlns:xlink="http://www.w3.org/1999/xlink" x="0px" y="0px"
	 width="20px" height="20px" viewBox="0 0 20 20" style="enable-background:new 0 0 20 20;" xml:space="preserve">

<path fill="#FFFFFF" d="M8.68,13.88c-0.33,0-0.65-0.13-0.89-0.35l-2.63-2.63c-0.49-0.49-0.49-1.28,0-1.77
	c0.24-0.24,0.55-0.37,0.89-0.37S6.7,8.88,6.93,9.12l1.76,1.75l4.38-4.38c0.24-0.24,0.55-0.37,0.89-0.37s0.65,0.13,0.89,0.37
	s0.37,0.55,0.37,0.89c0,0.34-0.13,0.65-0.37,0.89l-5.27,5.27C9.32,13.76,9.01,13.88,8.68,13.88z"/>
</svg>