<?xml version="1.0" encoding="utf-8"?>
<!-- Generator: Adobe Illustrator 25.1.0, SVG Export Plug-In . SVG Version: 6.00 Build 0)  -->
<svg version="1.1" id="Capa_1" xmlns="http://www.w3.org/2000/svg" xmlns:xlink="http://www.w3.org/1999/xlink" x="0px" y="0px"
	 viewBox="0 0 25 25" style="enable-background:new 0 0 25 25;" xml:space="preserve">
<style type="text/css">
	.st0{fill:#C4C4C4;}
</style>
<g>
	<path class="st0" d="M1037.8,273.8c0-0.1-0.1-0.1-0.1-0.2c-1.5-2.4-2.9-4.7-4.4-7.1c-0.7-1.1-1-2.3-0.8-3.5c0.3-2.3,2-4.2,4.3-4.6
		c2.7-0.5,5.2,1.1,6,3.6c0.5,1.5,0.3,3-0.5,4.3C1040.8,268.8,1039.3,271.2,1037.8,273.8C1037.8,273.7,1037.8,273.7,1037.8,273.8z
		 M1037.7,266.8c1.8,0,3.2-1.4,3.2-3.2c0-1.8-1.4-3.2-3.2-3.2c-1.8,0-3.2,1.4-3.2,3.2C1034.5,265.3,1036,266.8,1037.7,266.8z"/>
	<path class="st0" d="M1037.7,265.7c-1.2,0-2.1-0.9-2.1-2.1c0-1.2,1-2.1,2.1-2.1c1.2,0,2.1,1,2.1,2.1
		C1039.8,264.8,1038.9,265.7,1037.7,265.7z"/>
</g>
<g>
	<path class="st0" d="M10.1,12c1.4,1,2.8,1,4.3,0.2c1.5-0.8,2.3-2.5,2-4.2c-0.3-1.5-1.1-2.6-2.5-3.1c-0.4-0.2-0.8-0.2-1.2-0.3
		c-0.2,0-0.4,0-0.6,0c0,0-0.1,0-0.1,0c-0.7,0.1-1.3,0.3-1.8,0.6c-1.2,0.8-1.9,2-1.9,3.5C8.5,10.2,9,11.3,10.1,12z"/>
	<path class="st0" d="M19.3,15.6c-0.7-1.2-1.8-2-3.1-2.4c-0.5-0.1-0.9-0.2-1.4,0.2c-0.6,0.4-1.3,0.6-2.1,0.7c-1,0-1.9-0.2-2.7-0.8
		c-0.2-0.1-0.4-0.2-0.7-0.2c-0.1,0-0.3,0-0.4,0.1c-1.6,0.4-2.8,1.4-3.5,2.8c-0.1,0.1,0,0.3,0,0.4c0.5,0.9,1.3,1.7,2.1,2.3
		c1.4,1.1,3,1.6,5.1,1.6c1,0,2.1-0.3,3.3-0.8c1.3-0.6,2.4-1.6,3.2-2.8C19.6,16.2,19.6,16.2,19.3,15.6z"/>
</g>
</svg>
