<?xml version="1.0" encoding="utf-8"?>
<!-- Generator: Adobe Illustrator 25.1.0, SVG Export Plug-In . SVG Version: 6.00 Build 0)  -->
<svg version="1.1" id="Capa_1" xmlns="http://www.w3.org/2000/svg" xmlns:xlink="http://www.w3.org/1999/xlink" x="0px" y="0px"
	 viewBox="0 0 25 25" style="enable-background:new 0 0 25 25;" xml:space="preserve">
<style type="text/css">
	.st0{fill:#C4C4C4;}
</style>
<g>
	<path class="st0" d="M12.6,20.2c0-0.1-0.1-0.1-0.1-0.2C11,17.7,9.5,15.3,8.1,13c-0.7-1.1-1-2.3-0.8-3.5c0.3-2.3,2-4.2,4.3-4.6
		c2.7-0.5,5.2,1.1,6,3.6c0.5,1.5,0.3,3-0.5,4.3C15.6,15.3,14.1,17.7,12.6,20.2C12.6,20.2,12.6,20.2,12.6,20.2z M12.5,13.2
		c1.8,0,3.2-1.4,3.2-3.2c0-1.8-1.4-3.2-3.2-3.2c-1.8,0-3.2,1.4-3.2,3.2C9.3,11.8,10.7,13.2,12.5,13.2z"/>
	<path class="st0" d="M12.5,12.2c-1.2,0-2.1-0.9-2.1-2.1c0-1.2,1-2.1,2.1-2.1c1.2,0,2.1,1,2.1,2.1C14.6,11.2,13.7,12.2,12.5,12.2z"
		/>
</g>
<g>
	<path class="st0" d="M1037.8,273.8c0-0.1-0.1-0.1-0.1-0.2c-1.5-2.4-2.9-4.7-4.4-7.1c-0.7-1.1-1-2.3-0.8-3.5c0.3-2.3,2-4.2,4.3-4.6
		c2.7-0.5,5.2,1.1,6,3.6c0.5,1.5,0.3,3-0.5,4.3C1040.8,268.8,1039.3,271.2,1037.8,273.8C1037.8,273.7,1037.8,273.7,1037.8,273.8z
		 M1037.7,266.8c1.8,0,3.2-1.4,3.2-3.2c0-1.8-1.4-3.2-3.2-3.2c-1.8,0-3.2,1.4-3.2,3.2C1034.5,265.3,1036,266.8,1037.7,266.8z"/>
	<path class="st0" d="M1037.7,265.7c-1.2,0-2.1-0.9-2.1-2.1c0-1.2,1-2.1,2.1-2.1c1.2,0,2.1,1,2.1,2.1
		C1039.8,264.8,1038.9,265.7,1037.7,265.7z"/>
</g>
</svg>
