<?xml version="1.0" encoding="utf-8"?>
<!-- Generator: Adobe Illustrator 25.1.0, SVG Export Plug-In . SVG Version: 6.00 Build 0)  -->
<svg version="1.1" id="Capa_1" xmlns="http://www.w3.org/2000/svg" xmlns:xlink="http://www.w3.org/1999/xlink" x="0px" y="0px"
	 viewBox="0 0 25 25" style="enable-background:new 0 0 25 25;" xml:space="preserve">
<style type="text/css">
	.st0{fill:#C4C4C4;}
</style>
<path class="st0" d="M3.2,19c0.6,0,1.2,0,1.7,0c0-4.1,0-8.2,0-12.3c2.3-0.6,4.6-1.2,6.9-1.8c0,4.7,0,9.4,0,14.1c0.5,0,0.9,0,1.4,0
	c0-3.4,0-6.8,0-10.2c2.3,0,4.6,0,6.9,0c0,3.4,0,6.8,0,10.2c0.6,0,1.2,0,1.7,0c0,0.4,0,0.8,0,1.2c0,0-0.1,0-0.1,0
	c-6.2,0-12.4,0-18.5,0C3.2,19.8,3.2,19.4,3.2,19z M18.2,11.8c0-0.4,0-0.9,0-1.3c-1,0-2.1,0-3.1,0c0,0.4,0,0.9,0,1.3
	C16.1,11.8,17.1,11.8,18.2,11.8z M15.1,14.8c1.1,0,2.1,0,3.1,0c0-0.4,0-0.9,0-1.3c-1,0-2.1,0-3.1,0C15.1,13.9,15.1,14.4,15.1,14.8z
	 M18.2,16.5c-1,0-2.1,0-3.1,0c0,0.4,0,0.9,0,1.3c1,0,2.1,0,3.1,0C18.2,17.4,18.2,16.9,18.2,16.5z M6.8,7.7c0,0.4,0,0.9,0,1.3
	c1,0,2.1,0,3.1,0c0-0.4,0-0.9,0-1.3C8.9,7.7,7.8,7.7,6.8,7.7z M9.9,10.6c-1,0-2.1,0-3.1,0c0,0.4,0,0.9,0,1.3c1,0,2.1,0,3.1,0
	C9.9,11.5,9.9,11.1,9.9,10.6z M6.8,14.9c1,0,2.1,0,3.1,0c0-0.4,0-0.9,0-1.3c-1,0-2.1,0-3.1,0C6.8,14,6.8,14.5,6.8,14.9z M9.9,17.9
	c0-0.4,0-0.9,0-1.3c-1,0-2.1,0-3.1,0c0,0.4,0,0.9,0,1.3C7.8,17.9,8.9,17.9,9.9,17.9z"/>
</svg>
