<?xml version="1.0" encoding="utf-8"?>
<!-- Generator: Adobe Illustrator 25.1.0, SVG Export Plug-In . SVG Version: 6.00 Build 0)  -->
<svg version="1.1" id="Capa_1" xmlns="http://www.w3.org/2000/svg" xmlns:xlink="http://www.w3.org/1999/xlink" x="0px" y="0px"
	 viewBox="0 0 25 25" style="enable-background:new 0 0 25 25;" xml:space="preserve">
<style type="text/css">
	.st0{fill:#FFF;}
</style>
<g>
	<path class="st0" d="M1.9,12.3C3.8,9.2,6.4,7,10,6.2c2.4-0.6,4.7-0.3,6.9,0.7c0.2,0.1,0.3,0,0.4-0.1c0.6-0.7,1.3-1.3,2-2
		c0.2-0.2,0.4-0.3,0.7-0.2c0.2,0.1,0.4,0.2,0.5,0.5c0.1,0.3,0,0.5-0.2,0.7c-0.9,0.9-1.8,1.8-2.7,2.7c-3.9,3.9-7.8,7.8-11.7,11.7
		c-0.2,0.2-0.4,0.3-0.7,0.3c-0.3,0-0.4-0.2-0.5-0.5c-0.1-0.3,0-0.5,0.2-0.7c0.6-0.6,1.1-1.1,1.7-1.7c0.1-0.1,0.1-0.1,0.2-0.2
		c-2-1.3-3.6-2.8-4.7-4.8C1.9,12.6,1.9,12.4,1.9,12.3z M16.1,7.9C16.1,7.9,16.1,7.9,16.1,7.9C13.8,7,11.5,7,9.2,7.8
		c-2.5,0.9-4.3,2.5-5.8,4.6c-0.1,0.1,0,0.2,0,0.3c0.6,0.9,1.4,1.7,2.2,2.5c0.6,0.5,1.2,1,1.9,1.4c0.6-0.6,1.1-1.1,1.7-1.7
		C8,13,8.5,10.9,9.6,9.8c1.1-1.2,3.3-1.8,5.2-0.5C15.2,8.8,15.7,8.4,16.1,7.9z M10.2,13.8c1.2-1.2,2.4-2.4,3.6-3.6
		c-0.8-0.5-2.2-0.5-3.1,0.4C9.8,11.4,9.6,12.9,10.2,13.8z"/>
	<path class="st0" d="M9.2,18.6c0.4-0.3,0.7-0.7,1-1c0,0,0.1,0,0.2,0c3.3,0.7,6.2-0.2,8.8-2.3c0.9-0.7,1.7-1.6,2.3-2.6
		c0.1-0.1,0.1-0.2,0-0.4c-0.8-1.1-1.7-2.1-2.8-2.9c-0.1,0-0.1-0.1-0.2-0.1c0.3-0.3,0.6-0.6,1-1c0.3,0.3,0.7,0.5,1,0.8
		c0.9,0.8,1.7,1.8,2.4,2.9c0.2,0.3,0.2,0.7,0,1c-1.7,2.6-3.9,4.6-6.9,5.6c-2.2,0.7-4.4,0.8-6.7,0.1C9.3,18.7,9.3,18.6,9.2,18.6z"/>
	<path class="st0" d="M16.4,11.5c0.3,1.6,0,2.9-1.2,4c-1,0.9-2.3,1.2-3.7,0.9c0.4-0.4,0.8-0.8,1.2-1.2c0,0,0.1-0.1,0.2-0.1
		C14,15,15,14,15.1,12.8c0-0.1,0-0.1,0.1-0.2C15.6,12.3,15.9,11.9,16.4,11.5z"/>
</g>
</svg>
