<?xml version="1.0" encoding="utf-8"?>
<!-- Generator: Adobe Illustrator 25.1.0, SVG Export Plug-In . SVG Version: 6.00 Build 0)  -->
<svg version="1.1" id="Capa_1" xmlns="http://www.w3.org/2000/svg" xmlns:xlink="http://www.w3.org/1999/xlink" x="0px" y="0px"
	 viewBox="0 0 25 25" style="enable-background:new 0 0 25 25;" xml:space="preserve">
<style type="text/css">
	.st0{fill:#C4C4C4;}
</style>
<g>
	<path class="st0" d="M1037.8,273.8c0-0.1-0.1-0.1-0.1-0.2c-1.5-2.4-2.9-4.7-4.4-7.1c-0.7-1.1-1-2.3-0.8-3.5c0.3-2.3,2-4.2,4.3-4.6
		c2.7-0.5,5.2,1.1,6,3.6c0.5,1.5,0.3,3-0.5,4.3C1040.8,268.8,1039.3,271.2,1037.8,273.8C1037.8,273.7,1037.8,273.7,1037.8,273.8z
		 M1037.7,266.8c1.8,0,3.2-1.4,3.2-3.2c0-1.8-1.4-3.2-3.2-3.2c-1.8,0-3.2,1.4-3.2,3.2C1034.5,265.3,1036,266.8,1037.7,266.8z"/>
	<path class="st0" d="M1037.7,265.7c-1.2,0-2.1-0.9-2.1-2.1c0-1.2,1-2.1,2.1-2.1c1.2,0,2.1,1,2.1,2.1
		C1039.8,264.8,1038.9,265.7,1037.7,265.7z"/>
</g>
<g>
	<path class="st0" d="M12.8,5.1c0.3,0.1,0.7,0.1,1,0.2c1.5,0.4,2.8,1.2,3.9,2.4c1,1,1.7,2.3,2,3.7c0.1,0.2,0.1,0.4,0.2,0.6
		c0,0,0,0,0,0.1c-0.4,0.1-0.7,0.1-1.1,0.2c-0.8-3.3-2.8-5.3-6.2-6C12.6,5.9,12.7,5.5,12.8,5.1C12.8,5.1,12.8,5.1,12.8,5.1z"/>
	<path class="st0" d="M15.6,19.9c-0.8,0-1.5-0.2-2.2-0.5c-2.9-1.3-5.1-3.3-6.8-5.9c-0.6-1-1.1-2-1.3-3.1C5.1,9.8,5,9.3,5.2,8.8
		C5.3,8.5,5.4,8.2,5.6,8C6,7.7,6.4,7.3,6.8,6.9c0.3-0.3,0.7-0.5,1.2-0.3c0.2,0.1,0.3,0.2,0.5,0.3C8.9,7.5,9.5,8,10.1,8.6
		c0.3,0.3,0.5,0.6,0.4,1c0,0.3-0.2,0.5-0.4,0.7c-0.3,0.3-0.7,0.7-1,1c-0.2,0.2-0.2,0.2-0.1,0.4c0.4,0.8,0.9,1.5,1.6,2.2
		c0.6,0.7,1.3,1.2,2,1.7c0.3,0.2,0.5,0.3,0.8,0.4c0.1,0.1,0.2,0,0.3-0.1c0.3-0.3,0.7-0.7,1-1c0.2-0.2,0.4-0.4,0.7-0.4
		c0.3,0,0.6,0.1,0.8,0.2c0.1,0.1,0.1,0.1,0.2,0.2c0.5,0.5,1.1,1.1,1.6,1.6c0.2,0.2,0.3,0.4,0.4,0.6c0.1,0.3,0,0.6-0.2,0.9
		c-0.4,0.5-0.9,0.9-1.3,1.3C16.5,19.8,16.1,19.9,15.6,19.9z"/>
	<path class="st0" d="M12.4,9.2c0.1-0.4,0.1-0.7,0.2-1.1c1.8,0.2,3.9,1.8,4.3,4.2c-0.4,0.1-0.7,0.1-1.1,0.2
		C15.4,10.6,14.3,9.6,12.4,9.2z"/>
</g>
</svg>
