<?xml version="1.0" encoding="utf-8"?>
<!-- Generator: Adobe Illustrator 25.1.0, SVG Export Plug-In . SVG Version: 6.00 Build 0)  -->
<svg version="1.1" id="Capa_1" xmlns="http://www.w3.org/2000/svg" xmlns:xlink="http://www.w3.org/1999/xlink" x="0px" y="0px"
	 viewBox="0 0 25 25" style="enable-background:new 0 0 25 25;" xml:space="preserve">
<style type="text/css">
	.st0{fill:#C4C4C4;}
</style>
<g>
	<path class="st0" d="M1037.8,273.8c0-0.1-0.1-0.1-0.1-0.2c-1.5-2.4-2.9-4.7-4.4-7.1c-0.7-1.1-1-2.3-0.8-3.5c0.3-2.3,2-4.2,4.3-4.6
		c2.7-0.5,5.2,1.1,6,3.6c0.5,1.5,0.3,3-0.5,4.3C1040.8,268.8,1039.3,271.2,1037.8,273.8C1037.8,273.7,1037.8,273.7,1037.8,273.8z
		 M1037.7,266.8c1.8,0,3.2-1.4,3.2-3.2c0-1.8-1.4-3.2-3.2-3.2c-1.8,0-3.2,1.4-3.2,3.2C1034.5,265.3,1036,266.8,1037.7,266.8z"/>
	<path class="st0" d="M1037.7,265.7c-1.2,0-2.1-0.9-2.1-2.1c0-1.2,1-2.1,2.1-2.1c1.2,0,2.1,1,2.1,2.1
		C1039.8,264.8,1038.9,265.7,1037.7,265.7z"/>
</g>
<g>
	<path class="st0" d="M12.7,19.6c0-0.1,0-0.1,0-0.2c0-2.4,0-4.8,0-7.1c0-0.2,0.1-0.2,0.2-0.3c1.4-0.7,2.7-1.4,4.1-2.1
		c0.6-0.3,1.2-0.6,1.8-0.9c0.1,0,0.1,0,0.2-0.1C19,9,19,9,19,9.1c0,2.3,0,4.6,0,6.9c0,0.3-0.1,0.4-0.3,0.6c-2,1-3.9,2.1-5.9,3.1
		C12.8,19.6,12.7,19.6,12.7,19.6z"/>
	<path class="st0" d="M10,10.9c0.8,0.4,1.6,0.8,2.3,1.2c0,2.5,0,5,0,7.6c-0.1,0-0.1,0-0.1-0.1c-1.9-1-3.9-2.1-5.8-3.1
		C6.1,16.4,6,16.2,6,16c0-2.3,0-4.6,0-6.9C6,9,6,9,6,8.9c0.7,0.4,1.4,0.7,2.1,1c0,1.1,0,2.1,0,3.2c0,0.3,0.1,0.4,0.4,0.3
		c0.3-0.1,0.5,0,0.7,0.2c0.1,0.1,0.2,0.2,0.3,0.3c0.1,0.1,0.2,0.2,0.3,0.1C10,14,10,13.9,10,13.8c0-0.9,0-1.8,0-2.6
		C10,11.1,10,11,10,10.9z"/>
	<path class="st0" d="M18.8,8.6c-0.7,0.4-1.4,0.7-2.2,1.1c-1.3,0.7-2.6,1.3-3.9,2c-0.2,0.1-0.4,0.1-0.6,0c-0.6-0.3-1.2-0.6-1.9-0.9
		c0,0-0.1,0-0.2-0.1c0.1,0,0.1-0.1,0.2-0.1c2-1,4-2,6-3.1c0.1-0.1,0.2-0.1,0.3,0c0.6,0.3,1.3,0.7,1.9,1C18.7,8.5,18.7,8.5,18.8,8.6z
		"/>
	<path class="st0" d="M6.2,8.6c0.1,0,0.1-0.1,0.2-0.1c1.9-1,3.8-2,5.7-3c0.3-0.1,0.5-0.1,0.7,0c0.5,0.3,1.1,0.6,1.6,0.9
		c0,0,0.1,0,0.2,0.1c-0.1,0.1-0.2,0.1-0.3,0.2c-2,1-4,2-6,3c0,0-0.1,0-0.1,0C7.5,9.3,6.9,8.9,6.2,8.6z"/>
</g>
</svg>
