<?xml version="1.0" encoding="utf-8"?>
<!-- Generator: Adobe Illustrator 25.1.0, SVG Export Plug-In . SVG Version: 6.00 Build 0)  -->
<svg version="1.1" id="Capa_1" xmlns="http://www.w3.org/2000/svg" xmlns:xlink="http://www.w3.org/1999/xlink" x="0px" y="0px"
	 viewBox="0 0 25 25" style="enable-background:new 0 0 25 25;" xml:space="preserve">
<style type="text/css">
	.st0{fill:#C4C4C4;}
</style>
<g>
	<path class="st0" d="M1037.8,273.8c0-0.1-0.1-0.1-0.1-0.2c-1.5-2.4-2.9-4.7-4.4-7.1c-0.7-1.1-1-2.3-0.8-3.5c0.3-2.3,2-4.2,4.3-4.6
		c2.7-0.5,5.2,1.1,6,3.6c0.5,1.5,0.3,3-0.5,4.3C1040.8,268.8,1039.3,271.2,1037.8,273.8C1037.8,273.7,1037.8,273.7,1037.8,273.8z
		 M1037.7,266.8c1.8,0,3.2-1.4,3.2-3.2c0-1.8-1.4-3.2-3.2-3.2c-1.8,0-3.2,1.4-3.2,3.2C1034.5,265.3,1036,266.8,1037.7,266.8z"/>
	<path class="st0" d="M1037.7,265.7c-1.2,0-2.1-0.9-2.1-2.1c0-1.2,1-2.1,2.1-2.1c1.2,0,2.1,1,2.1,2.1
		C1039.8,264.8,1038.9,265.7,1037.7,265.7z"/>
</g>
<g>
	<path class="st0" d="M5.3,8.5c0-0.1,0.1-0.2,0.1-0.4c1.5,1.4,2.9,2.9,4.4,4.3c-1.5,1.4-2.9,2.9-4.4,4.3c0-0.1-0.1-0.2-0.1-0.3
		C5.3,13.8,5.3,11.2,5.3,8.5z"/>
	<path class="st0" d="M6,7.5c0.2,0,0.3-0.1,0.5-0.1c0.1,0,0.1,0,0.2,0c3.9,0,7.8,0,11.7,0c0.2,0,0.4,0,0.6,0.1c0,0,0,0.1,0,0.1
		c0,0-0.1,0-0.1,0.1c-2,2-4,4-5.9,6c-0.3,0.3-0.5,0.3-0.8,0c-2-2-4-4-6-6C6.1,7.6,6.1,7.6,6,7.5z"/>
	<path class="st0" d="M6,17.5c1.5-1.4,2.9-2.9,4.4-4.3c0.4,0.4,0.8,0.8,1.1,1.1c0.4,0.4,1,0.5,1.5,0.3c0.1-0.1,0.3-0.2,0.4-0.3
		c0.4-0.3,0.7-0.7,1-1c0,0,0.1-0.1,0.1-0.1c1.5,1.4,2.9,2.9,4.4,4.3c-0.2,0-0.3,0.1-0.5,0.1c-0.1,0-0.1,0-0.2,0c-3.9,0-7.8,0-11.7,0
		C6.4,17.6,6.2,17.6,6,17.5z"/>
	<path class="st0" d="M19.6,16.8c-1.5-1.5-2.9-2.9-4.4-4.3c1.5-1.4,2.9-2.9,4.4-4.3c0,0.2,0.1,0.3,0.1,0.5c0,2.6,0,5.1,0,7.7
		C19.7,16.5,19.6,16.7,19.6,16.8z"/>
</g>
</svg>
