<?xml version="1.0" encoding="utf-8"?>
<!-- Generator: Adobe Illustrator 25.1.0, SVG Export Plug-In . SVG Version: 6.00 Build 0)  -->
<svg version="1.1" id="Capa_1" xmlns="http://www.w3.org/2000/svg" xmlns:xlink="http://www.w3.org/1999/xlink" x="0px" y="0px"
	 viewBox="0 0 25 25" style="enable-background:new 0 0 25 25;" xml:space="preserve">
<style type="text/css">
	.st0{fill:#FFF;}
</style>
<g>
	<path class="st0" d="M12.5,16.4c-2.2,0-3.9-1.8-3.9-3.9s1.8-3.9,3.9-3.9s3.9,1.8,3.9,3.9S14.7,16.4,12.5,16.4z M12.5,9.8
		c-1.5,0-2.7,1.2-2.7,2.7s1.2,2.7,2.7,2.7s2.7-1.2,2.7-2.7S14,9.8,12.5,9.8z"/>
	<path class="st0" d="M22.9,12c-0.7-1.1-1.5-2-2.4-2.9c-0.3-0.3-0.7-0.6-1-0.8c0,0-1.3-1.1-3.2-1.8c0,0,0,0,0,0
		c-2-0.7-4.1-0.9-6.2-0.4C6.4,7,3.8,9.2,1.9,12.3c0,0.1,0,0.2,0,0.3c0.9,1.5,2,2.8,3.4,3.9l0,0c0,0,0.4,0.3,1,0.7c0,0,0.1,0,0.1,0.1
		l0,0c0.6,0.4,1.6,0.9,2.7,1.2c0.1,0,0.1,0,0.2,0.1c2.2,0.6,4.5,0.6,6.7-0.1c3-1,5.2-3,6.9-5.6C23.1,12.7,23.1,12.3,22.9,12z
		 M21.6,12.7c-0.7,1-1.4,1.8-2.3,2.6c-2.6,2.1-5.5,3-8.8,2.3c-0.1,0-1.9-0.6-3.2-1.3c-0.6-0.3-1.1-0.7-1.6-1.2
		c-0.8-0.7-1.6-1.5-2.2-2.5c-0.1-0.1-0.1-0.2,0-0.3c1.5-2.1,3.3-3.7,5.8-4.6c2.2-0.8,4.4-0.8,6.5,0c0.6,0.2,1.9,0.7,2.8,1.5
		c0.1,0,0.1,0.1,0.2,0.1c1.1,0.8,2,1.8,2.8,2.9C21.6,12.5,21.6,12.5,21.6,12.7z"/>
</g>
</svg>
