<?xml version="1.0" encoding="utf-8"?>
<!-- Generator: Adobe Illustrator 25.1.0, SVG Export Plug-In . SVG Version: 6.00 Build 0)  -->
<svg version="1.1" id="Capa_1" xmlns="http://www.w3.org/2000/svg" xmlns:xlink="http://www.w3.org/1999/xlink" x="0px" y="0px"
	 viewBox="0 0 25 25" style="enable-background:new 0 0 25 25;" xml:space="preserve">
<style type="text/css">
	.st0{fill:#C4C4C4;}
</style>
<g>
	<path class="st0" d="M1037.8,273.8c0-0.1-0.1-0.1-0.1-0.2c-1.5-2.4-2.9-4.7-4.4-7.1c-0.7-1.1-1-2.3-0.8-3.5c0.3-2.3,2-4.2,4.3-4.6
		c2.7-0.5,5.2,1.1,6,3.6c0.5,1.5,0.3,3-0.5,4.3C1040.8,268.8,1039.3,271.2,1037.8,273.8C1037.8,273.7,1037.8,273.7,1037.8,273.8z
		 M1037.7,266.8c1.8,0,3.2-1.4,3.2-3.2c0-1.8-1.4-3.2-3.2-3.2c-1.8,0-3.2,1.4-3.2,3.2C1034.5,265.3,1036,266.8,1037.7,266.8z"/>
	<path class="st0" d="M1037.7,265.7c-1.2,0-2.1-0.9-2.1-2.1c0-1.2,1-2.1,2.1-2.1c1.2,0,2.1,1,2.1,2.1
		C1039.8,264.8,1038.9,265.7,1037.7,265.7z"/>
</g>
<g>
	<path class="st0" d="M5.3,9.7c0,0.1,0,0.1,0,0.2c0,2.7,0,5.3,0,8c0,0.1,0,0.1,0,0.2c0,0.8,0.5,1.3,1.3,1.3c3.8,0,7.7,0,11.5,0
		c0.1,0,0.2,0,0.3,0c0.8-0.1,1.3-0.7,1.3-1.5c0-2.6,0-5.2,0-7.8c0-0.1,0-0.1,0-0.2C14.9,9.7,10.1,9.7,5.3,9.7z M11.4,11.7
		c0-0.2,0.1-0.4,0.4-0.4c0.4,0,0.7,0,1.1,0c0.2,0,0.4,0.1,0.4,0.3c0,0.4,0,0.8,0,1.1c0,0.2-0.1,0.3-0.3,0.3c-0.4,0-0.7,0-1.1,0
		c-0.2,0-0.4-0.1-0.4-0.4c0-0.2,0-0.4,0-0.5C11.4,12.1,11.4,11.9,11.4,11.7z M7.9,11.7c0-0.2,0.1-0.4,0.4-0.4c0.2,0,0.4,0,0.6,0
		c0.2,0,0.4,0,0.6,0c0.2,0,0.4,0.1,0.4,0.3c0,0.4,0,0.7,0,1.1c0,0.2-0.2,0.4-0.4,0.4c-0.4,0-0.7,0-1.1,0c-0.2,0-0.3-0.2-0.3-0.4
		C7.9,12.4,7.8,12.1,7.9,11.7z M9.7,16.8c0,0.2-0.2,0.4-0.4,0.4c-0.3,0-0.7,0-1,0c-0.2,0-0.4-0.1-0.4-0.4c0-0.2,0-0.4,0-0.5
		c0-0.2,0-0.4,0-0.5c0-0.2,0.1-0.4,0.4-0.4c0.4,0,0.8,0,1.1,0c0.2,0,0.3,0.1,0.4,0.3C9.7,16.1,9.7,16.5,9.7,16.8z M13.2,16.9
		c0,0.2-0.1,0.4-0.4,0.4c-0.2,0-0.4,0-0.6,0c-0.2,0-0.3,0-0.5,0c-0.3,0-0.4-0.1-0.4-0.4c0-0.4,0-0.7,0-1.1c0-0.2,0.1-0.4,0.4-0.4
		c0.4,0,0.7,0,1.1,0c0.2,0,0.4,0.1,0.4,0.4C13.2,16.1,13.2,16.5,13.2,16.9z M16.8,16.9c0,0.2-0.1,0.3-0.3,0.3c-0.4,0-0.8,0-1.1,0
		c-0.2,0-0.3-0.1-0.4-0.3c0-0.4,0-0.8,0-1.2c0-0.2,0.1-0.3,0.3-0.3c0.4,0,0.8,0,1.1,0c0.2,0,0.4,0.1,0.4,0.4c0,0,0,0,0,0
		c0,0.2,0,0.3,0,0.5c0,0,0,0,0,0C16.8,16.5,16.8,16.7,16.8,16.9z M16.8,12.8c0,0.2-0.1,0.4-0.3,0.4c-0.4,0-0.8,0-1.2,0
		c-0.2,0-0.3-0.1-0.4-0.4c0-0.4,0-0.7,0-1.1c0-0.2,0.1-0.4,0.4-0.4c0.4,0,0.7,0,1.1,0c0.2,0,0.4,0.1,0.4,0.4c0,0.2,0,0.4,0,0.6
		C16.8,12.5,16.8,12.6,16.8,12.8z"/>
	<path class="st0" d="M19.7,8.7c0-0.6,0-1.1,0-1.7c0,0,0,0,0-0.1c-0.1-0.5-0.5-0.9-0.9-1.1c-0.2-0.1-0.4-0.1-0.6-0.1
		c-0.4,0-0.9,0-1.3,0c0,0.1,0,0.1,0,0.2c0,0.4,0,0.7,0,1.1c0,0.1,0,0.2-0.1,0.3c-0.1,0.2-0.3,0.2-0.5,0.2c-0.2-0.1-0.3-0.2-0.3-0.4
		c0-0.4,0-0.8,0-1.2c0-0.1,0-0.1,0-0.2c-2.4,0-4.8,0-7.2,0c0,0.1,0,0.1,0,0.2c0,0.4,0,0.7,0,1.1c0,0.3-0.2,0.5-0.4,0.5
		C8,7.6,7.8,7.4,7.8,7c0-0.3,0-0.6,0-0.9c0-0.1,0-0.2,0-0.3c-0.1,0-0.1,0-0.2,0c-0.4,0-0.7,0-1.1,0c-0.8,0-1.2,0.6-1.2,1.1
		c0,0.6,0,1.2,0,1.9C10.1,8.7,14.9,8.7,19.7,8.7z"/>
</g>
</svg>
