<?xml version="1.0" encoding="utf-8"?>
<!-- Generator: Adobe Illustrator 25.1.0, SVG Export Plug-In . SVG Version: 6.00 Build 0)  -->
<svg version="1.1" id="Capa_1" xmlns="http://www.w3.org/2000/svg" xmlns:xlink="http://www.w3.org/1999/xlink" x="0px" y="0px"
	 viewBox="0 0 25 25" style="enable-background:new 0 0 25 25;" xml:space="preserve">
<style type="text/css">
	.st0{fill:#C4C4C4;}
</style>
<g>
	<path class="st0" d="M1037.8,273.8c0-0.1-0.1-0.1-0.1-0.2c-1.5-2.4-2.9-4.7-4.4-7.1c-0.7-1.1-1-2.3-0.8-3.5c0.3-2.3,2-4.2,4.3-4.6
		c2.7-0.5,5.2,1.1,6,3.6c0.5,1.5,0.3,3-0.5,4.3C1040.8,268.8,1039.3,271.2,1037.8,273.8C1037.8,273.7,1037.8,273.7,1037.8,273.8z
		 M1037.7,266.8c1.8,0,3.2-1.4,3.2-3.2c0-1.8-1.4-3.2-3.2-3.2c-1.8,0-3.2,1.4-3.2,3.2C1034.5,265.3,1036,266.8,1037.7,266.8z"/>
	<path class="st0" d="M1037.7,265.7c-1.2,0-2.1-0.9-2.1-2.1c0-1.2,1-2.1,2.1-2.1c1.2,0,2.1,1,2.1,2.1
		C1039.8,264.8,1038.9,265.7,1037.7,265.7z"/>
</g>
<path class="st0" d="M5.3,16.4c0-2.6,0-5.3,0-7.9c0,0,0-0.1,0-0.1C5.5,7.7,6.2,7.1,7,7.1c3.7,0,7.4,0,11,0c0.9,0,1.6,0.7,1.6,1.6
	c0,2.5,0,5,0,7.5c0,0.9-0.7,1.6-1.6,1.6c-3.7,0-7.4,0-11.1,0c-0.5,0-1-0.2-1.3-0.7C5.5,17,5.4,16.7,5.3,16.4z M9.8,15.5
	c0.7,0,1.4,0,2.1,0c0.4,0,0.6-0.2,0.6-0.5c0-0.1,0-0.1,0-0.2c0-0.9-0.7-1.7-1.6-1.7c-0.7,0-1.4,0-2.1,0c-0.6,0-1.1,0.3-1.4,0.8
	c-0.2,0.3-0.2,0.7-0.2,1c0,0.4,0.2,0.5,0.5,0.5C8.4,15.5,9.1,15.5,9.8,15.5z M11.3,11c0-0.8-0.7-1.5-1.5-1.5C9,9.5,8.3,10.2,8.3,11
	c0,0.8,0.7,1.5,1.5,1.5C10.6,12.5,11.3,11.8,11.3,11z M15.8,9.8c-0.5,0-1.1,0-1.6,0c-0.3,0-0.5,0.2-0.5,0.4c0,0.3,0.2,0.4,0.5,0.4
	c1.1,0,2.1,0,3.2,0c0.3,0,0.5-0.2,0.5-0.5c0-0.3-0.2-0.4-0.5-0.4C16.8,9.8,16.3,9.8,15.8,9.8z M15.8,13.1c0.5,0,1.1,0,1.6,0
	c0.2,0,0.4-0.1,0.4-0.3c0.1-0.3-0.1-0.6-0.5-0.6c-0.6,0-1.1,0-1.7,0c-0.5,0-1,0-1.5,0c-0.3,0-0.5,0.2-0.5,0.4c0,0.3,0.2,0.5,0.5,0.5
	C14.7,13.1,15.2,13.1,15.8,13.1z M15.8,14.6C15.8,14.6,15.8,14.6,15.8,14.6c-0.5,0-1.1,0-1.6,0c-0.1,0-0.2,0-0.3,0
	c-0.2,0.1-0.3,0.3-0.2,0.5c0,0.2,0.2,0.3,0.5,0.3c1.1,0,2.1,0,3.2,0c0.1,0,0.2,0,0.3-0.1c0.2-0.1,0.3-0.3,0.2-0.5
	c0-0.2-0.2-0.3-0.4-0.3C16.9,14.6,16.3,14.6,15.8,14.6z"/>
</svg>
