<?xml version="1.0" encoding="utf-8"?>
<!-- Generator: Adobe Illustrator 25.1.0, SVG Export Plug-In . SVG Version: 6.00 Build 0)  -->
<svg version="1.1" id="Capa_1" xmlns="http://www.w3.org/2000/svg" xmlns:xlink="http://www.w3.org/1999/xlink" x="0px" y="0px"
	 viewBox="0 0 25 25" style="enable-background:new 0 0 25 25;" xml:space="preserve">
<style type="text/css">
	.st0{fill:#C4C4C4;}
</style>
<g>
	<path class="st0" d="M1037.8,273.8c0-0.1-0.1-0.1-0.1-0.2c-1.5-2.4-2.9-4.7-4.4-7.1c-0.7-1.1-1-2.3-0.8-3.5c0.3-2.3,2-4.2,4.3-4.6
		c2.7-0.5,5.2,1.1,6,3.6c0.5,1.5,0.3,3-0.5,4.3C1040.8,268.8,1039.3,271.2,1037.8,273.8C1037.8,273.7,1037.8,273.7,1037.8,273.8z
		 M1037.7,266.8c1.8,0,3.2-1.4,3.2-3.2c0-1.8-1.4-3.2-3.2-3.2c-1.8,0-3.2,1.4-3.2,3.2C1034.5,265.3,1036,266.8,1037.7,266.8z"/>
	<path class="st0" d="M1037.7,265.7c-1.2,0-2.1-0.9-2.1-2.1c0-1.2,1-2.1,2.1-2.1c1.2,0,2.1,1,2.1,2.1
		C1039.8,264.8,1038.9,265.7,1037.7,265.7z"/>
</g>
<path class="st0" d="M9,20.4c-0.2-0.1-0.5-0.1-0.6-0.3C8.2,19.8,8,19.5,8,19.2c0-0.4,0-0.9,0-1.3c0-4,0-8,0-12C8,5.4,8.2,5,8.7,4.8
	C8.9,4.7,9,4.6,9.2,4.6c2.2,0,4.4,0,6.5,0c0.7,0,1.2,0.5,1.2,1.2c0,3.6,0,7.1,0,10.7c0,0.8,0,1.6,0,2.4c0,0.6-0.2,1.2-1,1.4
	C13.7,20.4,11.3,20.4,9,20.4z M8.9,16.7c2.4,0,4.8,0,7.2,0c0-3.4,0-6.8,0-10.1c-2.4,0-4.8,0-7.2,0C8.9,10,8.9,13.3,8.9,16.7z
	 M12.5,5.3c-0.5,0-1,0-1.5,0c-0.2,0-0.3,0.1-0.3,0.3c0,0.2,0.1,0.3,0.3,0.3c1,0,2,0,3.1,0c0.2,0,0.3-0.1,0.3-0.3
	c0-0.2-0.1-0.3-0.2-0.3C13.5,5.3,13,5.3,12.5,5.3z M12.5,19.2c0.4,0,0.7-0.3,0.7-0.7c0-0.4-0.3-0.7-0.7-0.7c-0.4,0-0.7,0.3-0.7,0.7
	C11.8,18.9,12.1,19.2,12.5,19.2z"/>
</svg>
