<svg version="1.1" id="Layer_1" xmlns="http://www.w3.org/2000/svg" xmlns:xlink="http://www.w3.org/1999/xlink" x="0px" y="0px"
	 width="50px" height="50px" viewBox="0 0 50 50" style="enable-background:new 0 0 50 50;" xml:space="preserve">
<g style="fill:#FFFFFF;">
	<path d="M10.25,15.67h3.84v12.91c0,1.19-0.26,2.24-0.79,3.15c-0.53,0.91-1.27,1.61-2.22,2.11
		c-0.96,0.5-2.04,0.74-3.24,0.74c-1.97,0-3.51-0.5-4.61-1.51c-1.1-1-1.65-2.42-1.65-4.26h3.87c0,0.91,0.19,1.59,0.58,2.02
		s0.99,0.65,1.82,0.65c0.73,0,1.32-0.25,1.76-0.76c0.44-0.5,0.65-1.22,0.65-2.15V15.67z"/>
	<path style="fill:#FFFFFF;" d="M32.03,28.11c-0.15,2.01-0.89,3.59-2.22,4.74c-1.34,1.15-3.1,1.73-5.29,1.73
		c-2.39,0-4.27-0.81-5.64-2.42c-1.37-1.61-2.06-3.82-2.06-6.63V24.4c0-1.79,0.32-3.37,0.95-4.74c0.63-1.37,1.54-2.42,2.71-3.15
		c1.17-0.73,2.54-1.1,4.09-1.1c2.15,0,3.89,0.58,5.2,1.73c1.32,1.15,2.08,2.77,2.28,4.86h-3.84c-0.09-1.2-0.43-2.08-1.01-2.62
		c-0.58-0.54-1.45-0.81-2.63-0.81c-1.28,0-2.24,0.46-2.88,1.38c-0.64,0.92-0.96,2.34-0.98,4.27v1.41c0,2.02,0.31,3.49,0.92,4.42
		c0.61,0.93,1.57,1.4,2.89,1.4c1.19,0,2.07-0.27,2.66-0.81c0.58-0.54,0.92-1.38,1.01-2.52H32.03z"/>
	<path style="fill:#FFFFFF;" d="M34.56,34.33V15.67h6.53c2.26,0,3.98,0.43,5.15,1.3c1.17,0.87,1.76,2.14,1.76,3.81
		c0,0.91-0.24,1.72-0.7,2.42c-0.47,0.7-1.12,1.21-1.96,1.53c0.96,0.24,1.71,0.72,2.26,1.45c0.55,0.73,0.83,1.61,0.83,2.66
		c0,1.79-0.57,3.15-1.72,4.07c-1.14,0.92-2.78,1.39-4.89,1.41H34.56z M38.4,23.49h2.84c1.94-0.03,2.91-0.81,2.91-2.32
		c0-0.85-0.25-1.45-0.74-1.83s-1.27-0.56-2.33-0.56H38.4V23.49z M38.4,26.2v5.04h3.29c0.91,0,1.61-0.22,2.12-0.65
		c0.51-0.43,0.76-1.03,0.76-1.79c0-1.71-0.88-2.58-2.65-2.6H38.4z"/>
</g>
</svg>
