<?xml version="1.0" encoding="utf-8"?>
<!-- Generator: Adobe Illustrator 25.1.0, SVG Export Plug-In . SVG Version: 6.00 Build 0)  -->
<svg version="1.1" id="Capa_1" xmlns="http://www.w3.org/2000/svg" xmlns:xlink="http://www.w3.org/1999/xlink" x="0px" y="0px"
	 viewBox="0 0 25 25" style="enable-background:new 0 0 25 25;" xml:space="preserve">
<style type="text/css">
	.st0{fill:#C4C4C4;}
</style>
<g>
	<path class="st0" d="M1037.8,273.8c0-0.1-0.1-0.1-0.1-0.2c-1.5-2.4-2.9-4.7-4.4-7.1c-0.7-1.1-1-2.3-0.8-3.5c0.3-2.3,2-4.2,4.3-4.6
		c2.7-0.5,5.2,1.1,6,3.6c0.5,1.5,0.3,3-0.5,4.3C1040.8,268.8,1039.3,271.2,1037.8,273.8C1037.8,273.7,1037.8,273.7,1037.8,273.8z
		 M1037.7,266.8c1.8,0,3.2-1.4,3.2-3.2c0-1.8-1.4-3.2-3.2-3.2c-1.8,0-3.2,1.4-3.2,3.2C1034.5,265.3,1036,266.8,1037.7,266.8z"/>
	<path class="st0" d="M1037.7,265.7c-1.2,0-2.1-0.9-2.1-2.1s1-2.1,2.1-2.1c1.2,0,2.1,1,2.1,2.1
		C1039.8,264.8,1038.9,265.7,1037.7,265.7z"/>
</g>
<g>
	<path class="st0" d="M11.5,13.8c0.8-0.6,1.1-0.6,1.9,0c0.1,0.1,0.2,0,0.3,0c1.3-1,2.6-2,3.8-3c0.1,0,0.1-0.1,0.2-0.1
		c-0.1-0.1-0.1-0.1-0.2-0.2c-1.4-1.1-2.8-2.1-4.1-3.2c-0.6-0.5-1.1-0.5-1.8,0C10.4,8.2,9.3,9.1,8.1,10c-0.3,0.2-0.6,0.4-0.9,0.7
		C8.7,11.8,10,12.8,11.5,13.8C11.5,13.9,11.5,13.9,11.5,13.8z"/>
	<path class="st0" d="M12.9,14.4c-0.3-0.3-0.4-0.3-0.8,0c-1.2,0.9-2.5,1.9-3.7,2.8c-0.3,0.2-0.6,0.4-0.9,0.7c0.2,0,0.4,0.1,0.6,0.1
		c2.9,0,5.9,0,8.8,0c0.2,0,0.4-0.1,0.6-0.1c-0.1-0.1-0.2-0.2-0.2-0.2C15.8,16.6,14.3,15.5,12.9,14.4z"/>
	<path class="st0" d="M6.8,11.4c0,1.9,0,3.7,0,5.5c0,0.1,0.1,0.3,0.1,0.4c1.3-1,2.6-2,3.8-3C9.5,13.4,8.2,12.4,6.8,11.4z"/>
	<path class="st0" d="M18.2,11.4c-1.3,1-2.6,2-3.9,3c1.3,1,2.6,2,3.8,3c0-0.2,0.1-0.3,0.1-0.5C18.2,15.1,18.2,13.3,18.2,11.4z"/>
</g>
</svg>
