<?xml version="1.0" encoding="utf-8"?>
<!-- Generator: Adobe Illustrator 25.1.0, SVG Export Plug-In . SVG Version: 6.00 Build 0)  -->
<svg version="1.1" id="Capa_1" xmlns="http://www.w3.org/2000/svg" xmlns:xlink="http://www.w3.org/1999/xlink" x="0px" y="0px"
	 viewBox="0 0 25 25" style="enable-background:new 0 0 25 25;" xml:space="preserve">
<style type="text/css">
	.st0{fill:#C4C4C4;}
	.st1{fill:#FFFFFF;}
</style>
<g>
	<path class="st0" d="M1037.8,273.8c0-0.1-0.1-0.1-0.1-0.2c-1.5-2.4-2.9-4.7-4.4-7.1c-0.7-1.1-1-2.3-0.8-3.5c0.3-2.3,2-4.2,4.3-4.6
		c2.7-0.5,5.2,1.1,6,3.6c0.5,1.5,0.3,3-0.5,4.3C1040.8,268.8,1039.3,271.2,1037.8,273.8C1037.8,273.7,1037.8,273.7,1037.8,273.8z
		 M1037.7,266.8c1.8,0,3.2-1.4,3.2-3.2c0-1.8-1.4-3.2-3.2-3.2c-1.8,0-3.2,1.4-3.2,3.2C1034.5,265.3,1036,266.8,1037.7,266.8z"/>
	<path class="st0" d="M1037.7,265.7c-1.2,0-2.1-0.9-2.1-2.1s1-2.1,2.1-2.1c1.2,0,2.1,1,2.1,2.1
		C1039.8,264.8,1038.9,265.7,1037.7,265.7z"/>
</g>
<path class="st1" d="M17.9,10.1c-0.9-1-1.9-1.9-2.9-2.9c-0.2-0.2-0.4-0.3-0.6-0.4l-0.1-0.1c-0.1,0-0.2-0.1-0.2-0.1c0,0-0.1,0-0.1,0
	h-0.4L12.7,7c-0.1,0-0.2,0-0.3,0c-0.2-0.1-0.4-0.2-0.6-0.2l-0.1-0.1h-0.5c0,0-0.1,0-0.1,0c-0.4,0.1-0.7,0.2-0.9,0.4L9.9,7.5
	C8.9,8.4,8,9.4,7.1,10.3c-0.5,0.5-0.6,1.4-0.3,2.1c0.1,0.1,0.1,0.3,0.1,0.4c-0.2,0.8,0.3,1.5,1,1.7c0.1,0,0.1,0,0.2,0l0.3,0.1l0,0.2
	c0.1,0.8,0.6,1.3,1.4,1.4l0.2,0l0,0.2c0,0.5,0.3,0.9,0.6,1.1c0.3,0.2,0.7,0.3,1.1,0.2c0.1,0,0.1,0,0.2,0c0.2,0,0.3,0.1,0.5,0.2
	c0.4,0.3,0.9,0.5,1.3,0.3c0.5-0.1,0.8-0.5,1-1c0-0.1,0-0.2,0.1-0.2l0.1-0.3l0.2,0c0.8-0.1,1.3-0.6,1.4-1.4l0-0.2l0.3-0.1
	c0.4,0,0.8-0.3,1.1-0.6c0.3-0.4,0.3-0.9,0.1-1.3c-0.1-0.3,0-0.4,0.1-0.5C18.6,11.9,18.6,10.8,17.9,10.1z M8.8,13.7
	C8.6,13.9,8.4,14,8.2,14c-0.2,0-0.4-0.1-0.6-0.2c-0.4-0.3-0.4-0.8-0.1-1.2c0.2-0.2,0.4-0.4,0.6-0.6c0.3-0.2,0.6-0.3,0.9-0.1
	c0.3,0.2,0.5,0.4,0.5,0.9l0,0.1L9.4,13c0,0.1-0.1,0.2-0.2,0.3C9.1,13.4,9,13.5,8.8,13.7L8.8,13.7z M9.8,15.6c-0.1,0-0.2,0-0.3-0.1
	c-0.3-0.1-0.5-0.4-0.5-0.8l0-0.1L9,14.5c0-0.1,0.1-0.2,0.2-0.3c0.1-0.2,0.3-0.3,0.4-0.4l0.1-0.1c0.3-0.3,0.9-0.3,1.2,0
	c0.3,0.3,0.4,0.9,0.1,1.2c-0.2,0.2-0.3,0.3-0.5,0.5C10.2,15.5,10,15.6,9.8,15.6z M11.9,17.1c-0.1,0.1-0.2,0.1-0.3,0.1l-0.1,0
	c-0.4,0-0.7-0.2-0.8-0.5c-0.2-0.3-0.1-0.7,0.1-0.9c0.1-0.2,0.3-0.3,0.5-0.5c0.3-0.3,0.8-0.3,1.1-0.1c0.4,0.3,0.5,0.8,0.2,1.2
	C12.3,16.6,12.1,16.8,11.9,17.1z M16.8,14.4c-0.3,0.1-0.7,0.1-0.9-0.1c-0.1-0.1-0.2-0.1-0.3-0.1c-0.1,0-0.2,0.1-0.2,0.2
	c0,0.1,0,0.2,0.1,0.3c0.2,0.3,0.3,0.5,0.2,0.8c-0.1,0.3-0.3,0.5-0.6,0.6c-0.3,0.1-0.6,0-0.8-0.2c-0.1-0.1-0.2-0.1-0.3-0.1
	c-0.1,0-0.2,0.1-0.2,0.2c0,0.1,0,0.2,0.1,0.3c0.2,0.3,0.3,0.5,0.2,0.8c-0.1,0.3-0.3,0.6-0.6,0.6c-0.1,0-0.1,0-0.2,0
	c-0.2,0-0.5-0.1-0.7-0.3l-0.2-0.2l0.2-0.2c0.5-0.5,0.7-1,0.5-1.6c-0.2-0.6-0.6-0.9-1.3-1l-0.2,0l0-0.2c-0.1-0.8-0.5-1.3-1.4-1.4
	l-0.2,0l0-0.2C10,12,9.7,11.6,9.1,11.4c-0.6-0.2-1.1-0.1-1.5,0.4l-0.4,0.4l0-0.6c0-0.4,0.1-0.7,0.4-1c1-1,2-2,3-3
	c0.3-0.3,0.6-0.4,1.1-0.3l0.5,0l-0.5,0.5c-0.1,0.1-0.1,0.1-0.2,0.2c-0.1,0.1-0.2,0.2-0.3,0.3c-0.4,0.6-0.3,1.3,0.2,1.8
	c0.5,0.5,1.3,0.5,1.8,0c0.1-0.1,0.1-0.1,0.2-0.2l0.3-0.3l0.2,0.2c0,0,0.1,0.1,0.1,0.1l3,3c0.2,0.2,0.3,0.4,0.3,0.7
	C17.3,14,17.2,14.3,16.8,14.4z M17.4,12.3l-0.2,0.1l-0.2-0.2l0.2-0.2l-0.2,0.1L17,12.1l-3-3c-0.2-0.2-0.3-0.2-0.5,0l-0.2,0.2
	c-0.1,0.1-0.2,0.2-0.4,0.4c-0.4,0.4-0.9,0.4-1.2,0c-0.3-0.3-0.3-0.8,0-1.2c0.2-0.2,0.4-0.4,0.6-0.6c0.3-0.3,0.6-0.5,1-0.6
	c0.5-0.2,0.9-0.1,1.2,0.2c1.1,1.1,2.1,2.1,3,3c0.2,0.2,0.3,0.5,0.3,0.8C17.8,11.7,17.7,12.1,17.4,12.3z"/>
</svg>
